<?xml version="1.0" encoding="utf-8" standalone="no"?>
<!DOCTYPE svg PUBLIC "-//W3C//DTD SVG 1.1//EN"
  "http://www.w3.org/Graphics/SVG/1.1/DTD/svg11.dtd">
<svg xmlns:xlink="http://www.w3.org/1999/xlink" width="720pt" height="360pt" viewBox="0 0 720 360" xmlns="http://www.w3.org/2000/svg" version="1.1">
 <metadata>
  <rdf:RDF xmlns:dc="http://purl.org/dc/elements/1.1/" xmlns:cc="http://creativecommons.org/ns#" xmlns:rdf="http://www.w3.org/1999/02/22-rdf-syntax-ns#">
   <cc:Work>
    <dc:type rdf:resource="http://purl.org/dc/dcmitype/StillImage"/>
    <dc:date>2025-08-21T22:48:52.401797</dc:date>
    <dc:format>image/svg+xml</dc:format>
    <dc:creator>
     <cc:Agent>
      <dc:title>Matplotlib v3.8.4, https://matplotlib.org/</dc:title>
     </cc:Agent>
    </dc:creator>
   </cc:Work>
  </rdf:RDF>
 </metadata>
 <defs>
  <style type="text/css">*{stroke-linejoin: round; stroke-linecap: butt}</style>
 </defs>
 <g id="figure_1">
  <g id="patch_1">
   <path d="M 0 360 
L 720 360 
L 720 0 
L 0 0 
z
" style="fill: #ffffff"/>
  </g>
  <g id="axes_1">
   <g id="patch_2">
    <path d="M 90 320.4 
L 648 320.4 
L 648 43.2 
L 90 43.2 
z
" style="fill: #ffffff"/>
   </g>
   <g id="PolyCollection_1"/>
   <g id="PolyCollection_2"/>
   <g id="matplotlib.axis_1">
    <g id="xtick_1">
     <g id="line2d_1">
      <defs>
       <path id="m9cd454967d" d="M 0 0 
L 0 -3.5 
" style="stroke: #000000; stroke-width: 0.8"/>
      </defs>
      <g>
       <use xlink:href="#m9cd454967d" x="90" y="320.4" style="stroke: #000000; stroke-width: 0.8"/>
      </g>
     </g>
     <g id="text_1">
      <!-- −10 -->
      <g transform="translate(83.215 329.62625) scale(0.08 -0.08)">
       <defs>
        <path id="ArialMT-2212" d="M 3381 1997 
L 356 1997 
L 356 2522 
L 3381 2522 
L 3381 1997 
z
" transform="scale(0.015625)"/>
        <path id="ArialMT-31" d="M 2384 0 
L 1822 0 
L 1822 3584 
Q 1619 3391 1289 3197 
Q 959 3003 697 2906 
L 697 3450 
Q 1169 3672 1522 3987 
Q 1875 4303 2022 4600 
L 2384 4600 
L 2384 0 
z
" transform="scale(0.015625)"/>
        <path id="ArialMT-30" d="M 266 2259 
Q 266 3072 433 3567 
Q 600 4063 929 4331 
Q 1259 4600 1759 4600 
Q 2128 4600 2406 4451 
Q 2684 4303 2865 4023 
Q 3047 3744 3150 3342 
Q 3253 2941 3253 2259 
Q 3253 1453 3087 958 
Q 2922 463 2592 192 
Q 2263 -78 1759 -78 
Q 1097 -78 719 397 
Q 266 969 266 2259 
z
M 844 2259 
Q 844 1131 1108 757 
Q 1372 384 1759 384 
Q 2147 384 2411 759 
Q 2675 1134 2675 2259 
Q 2675 3391 2411 3762 
Q 2147 4134 1753 4134 
Q 1366 4134 1134 3806 
Q 844 3388 844 2259 
z
" transform="scale(0.015625)"/>
       </defs>
       <use xlink:href="#ArialMT-2212"/>
       <use xlink:href="#ArialMT-31" x="58.398438"/>
       <use xlink:href="#ArialMT-30" x="114.013672"/>
      </g>
     </g>
    </g>
    <g id="xtick_2">
     <g id="line2d_2">
      <g>
       <use xlink:href="#m9cd454967d" x="145.8" y="320.4" style="stroke: #000000; stroke-width: 0.8"/>
      </g>
     </g>
     <g id="text_2">
      <!-- −8 -->
      <g transform="translate(141.239375 329.62625) scale(0.08 -0.08)">
       <defs>
        <path id="ArialMT-38" d="M 1131 2484 
Q 781 2613 612 2850 
Q 444 3088 444 3419 
Q 444 3919 803 4259 
Q 1163 4600 1759 4600 
Q 2359 4600 2725 4251 
Q 3091 3903 3091 3403 
Q 3091 3084 2923 2848 
Q 2756 2613 2416 2484 
Q 2838 2347 3058 2040 
Q 3278 1734 3278 1309 
Q 3278 722 2862 322 
Q 2447 -78 1769 -78 
Q 1091 -78 675 323 
Q 259 725 259 1325 
Q 259 1772 486 2073 
Q 713 2375 1131 2484 
z
M 1019 3438 
Q 1019 3113 1228 2906 
Q 1438 2700 1772 2700 
Q 2097 2700 2305 2904 
Q 2513 3109 2513 3406 
Q 2513 3716 2298 3927 
Q 2084 4138 1766 4138 
Q 1444 4138 1231 3931 
Q 1019 3725 1019 3438 
z
M 838 1322 
Q 838 1081 952 856 
Q 1066 631 1291 507 
Q 1516 384 1775 384 
Q 2178 384 2440 643 
Q 2703 903 2703 1303 
Q 2703 1709 2433 1975 
Q 2163 2241 1756 2241 
Q 1359 2241 1098 1978 
Q 838 1716 838 1322 
z
" transform="scale(0.015625)"/>
       </defs>
       <use xlink:href="#ArialMT-2212"/>
       <use xlink:href="#ArialMT-38" x="58.398438"/>
      </g>
     </g>
    </g>
    <g id="xtick_3">
     <g id="line2d_3">
      <g>
       <use xlink:href="#m9cd454967d" x="201.6" y="320.4" style="stroke: #000000; stroke-width: 0.8"/>
      </g>
     </g>
     <g id="text_3">
      <!-- −6 -->
      <g transform="translate(197.039375 329.62625) scale(0.08 -0.08)">
       <defs>
        <path id="ArialMT-36" d="M 3184 3459 
L 2625 3416 
Q 2550 3747 2413 3897 
Q 2184 4138 1850 4138 
Q 1581 4138 1378 3988 
Q 1113 3794 959 3422 
Q 806 3050 800 2363 
Q 1003 2672 1297 2822 
Q 1591 2972 1913 2972 
Q 2475 2972 2870 2558 
Q 3266 2144 3266 1488 
Q 3266 1056 3080 686 
Q 2894 316 2569 119 
Q 2244 -78 1831 -78 
Q 1128 -78 684 439 
Q 241 956 241 2144 
Q 241 3472 731 4075 
Q 1159 4600 1884 4600 
Q 2425 4600 2770 4297 
Q 3116 3994 3184 3459 
z
M 888 1484 
Q 888 1194 1011 928 
Q 1134 663 1356 523 
Q 1578 384 1822 384 
Q 2178 384 2434 671 
Q 2691 959 2691 1453 
Q 2691 1928 2437 2201 
Q 2184 2475 1800 2475 
Q 1419 2475 1153 2201 
Q 888 1928 888 1484 
z
" transform="scale(0.015625)"/>
       </defs>
       <use xlink:href="#ArialMT-2212"/>
       <use xlink:href="#ArialMT-36" x="58.398438"/>
      </g>
     </g>
    </g>
    <g id="xtick_4">
     <g id="line2d_4">
      <g>
       <use xlink:href="#m9cd454967d" x="257.4" y="320.4" style="stroke: #000000; stroke-width: 0.8"/>
      </g>
     </g>
     <g id="text_4">
      <!-- −4 -->
      <g transform="translate(252.839375 329.62625) scale(0.08 -0.08)">
       <defs>
        <path id="ArialMT-34" d="M 2069 0 
L 2069 1097 
L 81 1097 
L 81 1613 
L 2172 4581 
L 2631 4581 
L 2631 1613 
L 3250 1613 
L 3250 1097 
L 2631 1097 
L 2631 0 
L 2069 0 
z
M 2069 1613 
L 2069 3678 
L 634 1613 
L 2069 1613 
z
" transform="scale(0.015625)"/>
       </defs>
       <use xlink:href="#ArialMT-2212"/>
       <use xlink:href="#ArialMT-34" x="58.398438"/>
      </g>
     </g>
    </g>
    <g id="xtick_5">
     <g id="line2d_5">
      <g>
       <use xlink:href="#m9cd454967d" x="313.2" y="320.4" style="stroke: #000000; stroke-width: 0.8"/>
      </g>
     </g>
     <g id="text_5">
      <!-- −2 -->
      <g transform="translate(308.639375 329.62625) scale(0.08 -0.08)">
       <defs>
        <path id="ArialMT-32" d="M 3222 541 
L 3222 0 
L 194 0 
Q 188 203 259 391 
Q 375 700 629 1000 
Q 884 1300 1366 1694 
Q 2113 2306 2375 2664 
Q 2638 3022 2638 3341 
Q 2638 3675 2398 3904 
Q 2159 4134 1775 4134 
Q 1369 4134 1125 3890 
Q 881 3647 878 3216 
L 300 3275 
Q 359 3922 746 4261 
Q 1134 4600 1788 4600 
Q 2447 4600 2831 4234 
Q 3216 3869 3216 3328 
Q 3216 3053 3103 2787 
Q 2991 2522 2730 2228 
Q 2469 1934 1863 1422 
Q 1356 997 1212 845 
Q 1069 694 975 541 
L 3222 541 
z
" transform="scale(0.015625)"/>
       </defs>
       <use xlink:href="#ArialMT-2212"/>
       <use xlink:href="#ArialMT-32" x="58.398438"/>
      </g>
     </g>
    </g>
    <g id="xtick_6">
     <g id="line2d_6">
      <g>
       <use xlink:href="#m9cd454967d" x="369" y="320.4" style="stroke: #000000; stroke-width: 0.8"/>
      </g>
     </g>
     <g id="text_6">
      <!-- 0 -->
      <g transform="translate(366.775625 329.62625) scale(0.08 -0.08)">
       <use xlink:href="#ArialMT-30"/>
      </g>
     </g>
    </g>
    <g id="xtick_7">
     <g id="line2d_7">
      <g>
       <use xlink:href="#m9cd454967d" x="424.8" y="320.4" style="stroke: #000000; stroke-width: 0.8"/>
      </g>
     </g>
     <g id="text_7">
      <!-- 2 -->
      <g transform="translate(422.575625 329.62625) scale(0.08 -0.08)">
       <use xlink:href="#ArialMT-32"/>
      </g>
     </g>
    </g>
    <g id="xtick_8">
     <g id="line2d_8">
      <g>
       <use xlink:href="#m9cd454967d" x="480.6" y="320.4" style="stroke: #000000; stroke-width: 0.8"/>
      </g>
     </g>
     <g id="text_8">
      <!-- 4 -->
      <g transform="translate(478.375625 329.62625) scale(0.08 -0.08)">
       <use xlink:href="#ArialMT-34"/>
      </g>
     </g>
    </g>
    <g id="xtick_9">
     <g id="line2d_9">
      <g>
       <use xlink:href="#m9cd454967d" x="536.4" y="320.4" style="stroke: #000000; stroke-width: 0.8"/>
      </g>
     </g>
     <g id="text_9">
      <!-- 6 -->
      <g transform="translate(534.175625 329.62625) scale(0.08 -0.08)">
       <use xlink:href="#ArialMT-36"/>
      </g>
     </g>
    </g>
    <g id="xtick_10">
     <g id="line2d_10">
      <g>
       <use xlink:href="#m9cd454967d" x="592.2" y="320.4" style="stroke: #000000; stroke-width: 0.8"/>
      </g>
     </g>
     <g id="text_10">
      <!-- 8 -->
      <g transform="translate(589.975625 329.62625) scale(0.08 -0.08)">
       <use xlink:href="#ArialMT-38"/>
      </g>
     </g>
    </g>
    <g id="text_11">
     <!-- Energy $E-E_f$ -->
     <g transform="translate(336.8 342.51625) scale(0.1 -0.1)">
      <defs>
       <path id="Arial-BoldMT-45" d="M 466 0 
L 466 4581 
L 3863 4581 
L 3863 3806 
L 1391 3806 
L 1391 2791 
L 3691 2791 
L 3691 2019 
L 1391 2019 
L 1391 772 
L 3950 772 
L 3950 0 
L 466 0 
z
" transform="scale(0.015625)"/>
       <path id="Arial-BoldMT-6e" d="M 3478 0 
L 2600 0 
L 2600 1694 
Q 2600 2231 2544 2389 
Q 2488 2547 2361 2634 
Q 2234 2722 2056 2722 
Q 1828 2722 1647 2597 
Q 1466 2472 1398 2265 
Q 1331 2059 1331 1503 
L 1331 0 
L 453 0 
L 453 3319 
L 1269 3319 
L 1269 2831 
Q 1703 3394 2363 3394 
Q 2653 3394 2893 3289 
Q 3134 3184 3257 3021 
Q 3381 2859 3429 2653 
Q 3478 2447 3478 2063 
L 3478 0 
z
" transform="scale(0.015625)"/>
       <path id="Arial-BoldMT-65" d="M 2381 1056 
L 3256 909 
Q 3088 428 2723 176 
Q 2359 -75 1813 -75 
Q 947 -75 531 491 
Q 203 944 203 1634 
Q 203 2459 634 2926 
Q 1066 3394 1725 3394 
Q 2466 3394 2894 2905 
Q 3322 2416 3303 1406 
L 1103 1406 
Q 1113 1016 1316 798 
Q 1519 581 1822 581 
Q 2028 581 2168 693 
Q 2309 806 2381 1056 
z
M 2431 1944 
Q 2422 2325 2234 2523 
Q 2047 2722 1778 2722 
Q 1491 2722 1303 2513 
Q 1116 2303 1119 1944 
L 2431 1944 
z
" transform="scale(0.015625)"/>
       <path id="Arial-BoldMT-72" d="M 1300 0 
L 422 0 
L 422 3319 
L 1238 3319 
L 1238 2847 
Q 1447 3181 1614 3287 
Q 1781 3394 1994 3394 
Q 2294 3394 2572 3228 
L 2300 2463 
Q 2078 2606 1888 2606 
Q 1703 2606 1575 2504 
Q 1447 2403 1373 2137 
Q 1300 1872 1300 1025 
L 1300 0 
z
" transform="scale(0.015625)"/>
       <path id="Arial-BoldMT-67" d="M 378 -219 
L 1381 -341 
Q 1406 -516 1497 -581 
Q 1622 -675 1891 -675 
Q 2234 -675 2406 -572 
Q 2522 -503 2581 -350 
Q 2622 -241 2622 53 
L 2622 538 
Q 2228 0 1628 0 
Q 959 0 569 566 
Q 263 1013 263 1678 
Q 263 2513 664 2953 
Q 1066 3394 1663 3394 
Q 2278 3394 2678 2853 
L 2678 3319 
L 3500 3319 
L 3500 341 
Q 3500 -247 3403 -537 
Q 3306 -828 3131 -993 
Q 2956 -1159 2664 -1253 
Q 2372 -1347 1925 -1347 
Q 1081 -1347 728 -1058 
Q 375 -769 375 -325 
Q 375 -281 378 -219 
z
M 1163 1728 
Q 1163 1200 1367 954 
Q 1572 709 1872 709 
Q 2194 709 2416 961 
Q 2638 1213 2638 1706 
Q 2638 2222 2425 2472 
Q 2213 2722 1888 2722 
Q 1572 2722 1367 2476 
Q 1163 2231 1163 1728 
z
" transform="scale(0.015625)"/>
       <path id="Arial-BoldMT-79" d="M 44 3319 
L 978 3319 
L 1772 963 
L 2547 3319 
L 3456 3319 
L 2284 125 
L 2075 -453 
Q 1959 -744 1854 -897 
Q 1750 -1050 1614 -1145 
Q 1478 -1241 1279 -1294 
Q 1081 -1347 831 -1347 
Q 578 -1347 334 -1294 
L 256 -606 
Q 463 -647 628 -647 
Q 934 -647 1081 -467 
Q 1228 -288 1306 -9 
L 44 3319 
z
" transform="scale(0.015625)"/>
       <path id="Arial-BoldMT-20" transform="scale(0.015625)"/>
       <path id="DejaVuSans-Oblique-45" d="M 1081 4666 
L 4031 4666 
L 3928 4134 
L 1606 4134 
L 1338 2753 
L 3566 2753 
L 3463 2222 
L 1234 2222 
L 909 531 
L 3284 531 
L 3181 0 
L 172 0 
L 1081 4666 
z
" transform="scale(0.015625)"/>
       <path id="DejaVuSans-2212" d="M 678 2272 
L 4684 2272 
L 4684 1741 
L 678 1741 
L 678 2272 
z
" transform="scale(0.015625)"/>
       <path id="DejaVuSans-Oblique-66" d="M 3059 4863 
L 2969 4384 
L 2419 4384 
Q 2106 4384 1964 4261 
Q 1822 4138 1753 3809 
L 1691 3500 
L 2638 3500 
L 2553 3053 
L 1606 3053 
L 1013 0 
L 434 0 
L 1031 3053 
L 481 3053 
L 563 3500 
L 1113 3500 
L 1159 3744 
Q 1278 4363 1576 4613 
Q 1875 4863 2516 4863 
L 3059 4863 
z
" transform="scale(0.015625)"/>
      </defs>
      <use xlink:href="#Arial-BoldMT-45" transform="translate(0 0.09375)"/>
      <use xlink:href="#Arial-BoldMT-6e" transform="translate(66.699219 0.09375)"/>
      <use xlink:href="#Arial-BoldMT-65" transform="translate(127.783203 0.09375)"/>
      <use xlink:href="#Arial-BoldMT-72" transform="translate(183.398438 0.09375)"/>
      <use xlink:href="#Arial-BoldMT-67" transform="translate(222.314453 0.09375)"/>
      <use xlink:href="#Arial-BoldMT-79" transform="translate(283.398438 0.09375)"/>
      <use xlink:href="#Arial-BoldMT-20" transform="translate(339.013672 0.09375)"/>
      <use xlink:href="#DejaVuSans-Oblique-45" transform="translate(366.796875 0.09375)"/>
      <use xlink:href="#DejaVuSans-2212" transform="translate(449.462891 0.09375)"/>
      <use xlink:href="#DejaVuSans-Oblique-45" transform="translate(552.734375 0.09375)"/>
      <use xlink:href="#DejaVuSans-Oblique-66" transform="translate(615.917969 -16.3125) scale(0.7)"/>
     </g>
    </g>
   </g>
   <g id="matplotlib.axis_2">
    <g id="ytick_1">
     <g id="line2d_11">
      <defs>
       <path id="m0530b0a08e" d="M 0 0 
L 3.5 0 
" style="stroke: #000000; stroke-width: 0.8"/>
      </defs>
      <g>
       <use xlink:href="#m0530b0a08e" x="90" y="291.290435" style="stroke: #000000; stroke-width: 0.8"/>
      </g>
     </g>
     <g id="text_12">
      <!-- −1.5 -->
      <g transform="translate(70.7075 294.15356) scale(0.08 -0.08)">
       <defs>
        <path id="ArialMT-2e" d="M 581 0 
L 581 641 
L 1222 641 
L 1222 0 
L 581 0 
z
" transform="scale(0.015625)"/>
        <path id="ArialMT-35" d="M 266 1200 
L 856 1250 
Q 922 819 1161 601 
Q 1400 384 1738 384 
Q 2144 384 2425 690 
Q 2706 997 2706 1503 
Q 2706 1984 2436 2262 
Q 2166 2541 1728 2541 
Q 1456 2541 1237 2417 
Q 1019 2294 894 2097 
L 366 2166 
L 809 4519 
L 3088 4519 
L 3088 3981 
L 1259 3981 
L 1013 2750 
Q 1425 3038 1878 3038 
Q 2478 3038 2890 2622 
Q 3303 2206 3303 1553 
Q 3303 931 2941 478 
Q 2500 -78 1738 -78 
Q 1113 -78 717 272 
Q 322 622 266 1200 
z
" transform="scale(0.015625)"/>
       </defs>
       <use xlink:href="#ArialMT-2212"/>
       <use xlink:href="#ArialMT-31" x="58.398438"/>
       <use xlink:href="#ArialMT-2e" x="114.013672"/>
       <use xlink:href="#ArialMT-35" x="141.796875"/>
      </g>
     </g>
    </g>
    <g id="ytick_2">
     <g id="line2d_12">
      <g>
       <use xlink:href="#m0530b0a08e" x="90" y="254.793623" style="stroke: #000000; stroke-width: 0.8"/>
      </g>
     </g>
     <g id="text_13">
      <!-- −1.0 -->
      <g transform="translate(70.7075 257.656748) scale(0.08 -0.08)">
       <use xlink:href="#ArialMT-2212"/>
       <use xlink:href="#ArialMT-31" x="58.398438"/>
       <use xlink:href="#ArialMT-2e" x="114.013672"/>
       <use xlink:href="#ArialMT-30" x="141.796875"/>
      </g>
     </g>
    </g>
    <g id="ytick_3">
     <g id="line2d_13">
      <g>
       <use xlink:href="#m0530b0a08e" x="90" y="218.296812" style="stroke: #000000; stroke-width: 0.8"/>
      </g>
     </g>
     <g id="text_14">
      <!-- −0.5 -->
      <g transform="translate(70.7075 221.159937) scale(0.08 -0.08)">
       <use xlink:href="#ArialMT-2212"/>
       <use xlink:href="#ArialMT-30" x="58.398438"/>
       <use xlink:href="#ArialMT-2e" x="114.013672"/>
       <use xlink:href="#ArialMT-35" x="141.796875"/>
      </g>
     </g>
    </g>
    <g id="ytick_4">
     <g id="line2d_14">
      <g>
       <use xlink:href="#m0530b0a08e" x="90" y="181.8" style="stroke: #000000; stroke-width: 0.8"/>
      </g>
     </g>
     <g id="text_15">
      <!-- 0.0 -->
      <g transform="translate(75.38 184.663125) scale(0.08 -0.08)">
       <use xlink:href="#ArialMT-30"/>
       <use xlink:href="#ArialMT-2e" x="55.615234"/>
       <use xlink:href="#ArialMT-30" x="83.398438"/>
      </g>
     </g>
    </g>
    <g id="ytick_5">
     <g id="line2d_15">
      <g>
       <use xlink:href="#m0530b0a08e" x="90" y="145.303188" style="stroke: #000000; stroke-width: 0.8"/>
      </g>
     </g>
     <g id="text_16">
      <!-- 0.5 -->
      <g transform="translate(75.38 148.166313) scale(0.08 -0.08)">
       <use xlink:href="#ArialMT-30"/>
       <use xlink:href="#ArialMT-2e" x="55.615234"/>
       <use xlink:href="#ArialMT-35" x="83.398438"/>
      </g>
     </g>
    </g>
    <g id="ytick_6">
     <g id="line2d_16">
      <g>
       <use xlink:href="#m0530b0a08e" x="90" y="108.806377" style="stroke: #000000; stroke-width: 0.8"/>
      </g>
     </g>
     <g id="text_17">
      <!-- 1.0 -->
      <g transform="translate(75.38 111.669502) scale(0.08 -0.08)">
       <use xlink:href="#ArialMT-31"/>
       <use xlink:href="#ArialMT-2e" x="55.615234"/>
       <use xlink:href="#ArialMT-30" x="83.398438"/>
      </g>
     </g>
    </g>
    <g id="ytick_7">
     <g id="line2d_17">
      <g>
       <use xlink:href="#m0530b0a08e" x="90" y="72.309565" style="stroke: #000000; stroke-width: 0.8"/>
      </g>
     </g>
     <g id="text_18">
      <!-- 1.5 -->
      <g transform="translate(75.38 75.17269) scale(0.08 -0.08)">
       <use xlink:href="#ArialMT-31"/>
       <use xlink:href="#ArialMT-2e" x="55.615234"/>
       <use xlink:href="#ArialMT-35" x="83.398438"/>
      </g>
     </g>
    </g>
    <g id="text_19">
     <!-- -COHP -->
     <g transform="translate(64.734062 197.910937) rotate(-90) scale(0.1 -0.1)">
      <defs>
       <path id="Arial-BoldMT-2d" d="M 359 1222 
L 359 2100 
L 2084 2100 
L 2084 1222 
L 359 1222 
z
" transform="scale(0.015625)"/>
       <path id="Arial-BoldMT-43" d="M 3397 1684 
L 4294 1400 
Q 4088 650 3608 286 
Q 3128 -78 2391 -78 
Q 1478 -78 890 545 
Q 303 1169 303 2250 
Q 303 3394 893 4026 
Q 1484 4659 2447 4659 
Q 3288 4659 3813 4163 
Q 4125 3869 4281 3319 
L 3366 3100 
Q 3284 3456 3026 3662 
Q 2769 3869 2400 3869 
Q 1891 3869 1573 3503 
Q 1256 3138 1256 2319 
Q 1256 1450 1568 1081 
Q 1881 713 2381 713 
Q 2750 713 3015 947 
Q 3281 1181 3397 1684 
z
" transform="scale(0.015625)"/>
       <path id="Arial-BoldMT-4f" d="M 278 2263 
Q 278 2963 488 3438 
Q 644 3788 914 4066 
Q 1184 4344 1506 4478 
Q 1934 4659 2494 4659 
Q 3506 4659 4114 4031 
Q 4722 3403 4722 2284 
Q 4722 1175 4119 548 
Q 3516 -78 2506 -78 
Q 1484 -78 881 545 
Q 278 1169 278 2263 
z
M 1231 2294 
Q 1231 1516 1590 1114 
Q 1950 713 2503 713 
Q 3056 713 3411 1111 
Q 3766 1509 3766 2306 
Q 3766 3094 3420 3481 
Q 3075 3869 2503 3869 
Q 1931 3869 1581 3476 
Q 1231 3084 1231 2294 
z
" transform="scale(0.015625)"/>
       <path id="Arial-BoldMT-48" d="M 469 0 
L 469 4581 
L 1394 4581 
L 1394 2778 
L 3206 2778 
L 3206 4581 
L 4131 4581 
L 4131 0 
L 3206 0 
L 3206 2003 
L 1394 2003 
L 1394 0 
L 469 0 
z
" transform="scale(0.015625)"/>
       <path id="Arial-BoldMT-50" d="M 466 0 
L 466 4581 
L 1950 4581 
Q 2794 4581 3050 4513 
Q 3444 4409 3709 4064 
Q 3975 3719 3975 3172 
Q 3975 2750 3822 2462 
Q 3669 2175 3433 2011 
Q 3197 1847 2953 1794 
Q 2622 1728 1994 1728 
L 1391 1728 
L 1391 0 
L 466 0 
z
M 1391 3806 
L 1391 2506 
L 1897 2506 
Q 2444 2506 2628 2578 
Q 2813 2650 2917 2803 
Q 3022 2956 3022 3159 
Q 3022 3409 2875 3571 
Q 2728 3734 2503 3775 
Q 2338 3806 1838 3806 
L 1391 3806 
z
" transform="scale(0.015625)"/>
      </defs>
      <use xlink:href="#Arial-BoldMT-2d"/>
      <use xlink:href="#Arial-BoldMT-43" x="33.300781"/>
      <use xlink:href="#Arial-BoldMT-4f" x="105.517578"/>
      <use xlink:href="#Arial-BoldMT-48" x="183.300781"/>
      <use xlink:href="#Arial-BoldMT-50" x="255.517578"/>
     </g>
    </g>
   </g>
   <g id="line2d_18">
    <path d="M 89.300826 181.8 
L 170.413659 181.8 
L 171.812007 182.185406 
L 173.210634 186.95481 
L 174.608982 184.023386 
L 177.405957 199.236717 
L 178.804584 195.131555 
L 180.202932 195.343967 
L 181.601559 201.549155 
L 182.999907 203.77692 
L 184.398534 206.40761 
L 185.796882 203.43385 
L 188.593857 197.099463 
L 189.992484 202.870339 
L 191.391111 205.829501 
L 192.789459 209.921523 
L 194.188086 203.257206 
L 195.586434 206.074029 
L 196.985061 203.696627 
L 198.383409 195.045423 
L 199.782036 198.414809 
L 201.180384 203.130927 
L 202.579011 204.288605 
L 203.977359 209.003993 
L 205.375986 209.712762 
L 206.774334 205.397379 
L 208.172961 202.1769 
L 209.571309 200.12067 
L 210.969936 199.798038 
L 212.368284 210.279922 
L 213.766911 212.555133 
L 215.165538 218.99828 
L 216.563886 206.841922 
L 217.962513 201.160099 
L 219.360861 216.659565 
L 220.759488 203.728744 
L 222.157836 210.245615 
L 223.556463 224.94945 
L 224.954811 213.96756 
L 226.353438 207.821497 
L 227.751786 208.316394 
L 229.150413 198.901676 
L 230.548761 201.961569 
L 231.947388 197.919912 
L 233.345736 192.956345 
L 234.744363 189.715429 
L 236.14299 194.098696 
L 237.541338 196.157116 
L 238.939965 205.387159 
L 240.338313 206.576956 
L 241.73694 210.550728 
L 243.135288 211.319351 
L 245.932263 198.313347 
L 247.33089 199.806797 
L 248.729238 202.304639 
L 250.127865 194.978999 
L 251.526213 185.616107 
L 252.92484 178.266379 
L 254.323188 178.861277 
L 255.721815 178.102873 
L 257.120163 180.65108 
L 258.51879 179.598512 
L 259.917417 180.010926 
L 261.315765 181.399995 
L 262.714392 181.308753 
L 264.11274 183.554767 
L 265.511367 185.100042 
L 266.909715 188.479646 
L 268.308342 185.601508 
L 269.70669 182.286138 
L 271.105317 182.681033 
L 272.503665 180.569328 
L 273.902292 182.351102 
L 275.30064 178.983906 
L 276.699267 181.852555 
L 278.097615 181.356199 
L 279.496242 175.480942 
L 280.894869 179.329166 
L 282.293217 173.282374 
L 283.691844 163.058157 
L 285.090192 169.09838 
L 286.488819 174.451732 
L 287.887167 178.118932 
L 290.684142 180.058372 
L 292.082769 178.037909 
L 293.481117 176.851032 
L 294.879744 175.927663 
L 296.278092 176.454677 
L 297.676719 177.397025 
L 299.075067 177.687539 
L 300.473694 177.280965 
L 303.270669 176.786798 
L 304.669296 175.660506 
L 306.067644 170.309344 
L 307.466271 169.786709 
L 308.864619 170.728327 
L 310.263246 172.103527 
L 311.661594 171.211545 
L 313.060221 166.258928 
L 314.458569 165.577897 
L 315.857196 164.720222 
L 317.255544 165.362566 
L 318.654171 167.959679 
L 320.052519 169.286703 
L 321.451146 165.914398 
L 322.849494 165.792498 
L 324.248121 166.318052 
L 325.646748 171.129062 
L 327.045096 174.896993 
L 329.842071 176.678767 
L 331.240698 175.249552 
L 332.639046 172.193309 
L 334.037673 173.33055 
L 335.436021 169.720285 
L 336.834648 164.623141 
L 338.232996 165.849433 
L 339.631623 169.221009 
L 341.029971 170.962637 
L 342.428598 172.134184 
L 343.826946 174.181656 
L 345.225573 173.542961 
L 346.623921 177.887542 
L 348.022548 175.167799 
L 349.421175 177.013078 
L 350.819523 178.393388 
L 352.21815 179.497051 
L 353.616498 180.42334 
L 355.015125 180.243776 
L 356.413473 179.809464 
L 357.8121 180.936485 
L 359.210448 179.060549 
L 360.609075 180.869331 
L 364.804398 181.748904 
L 367.601373 181.064224 
L 369 179.798515 
L 370.398627 181.8 
L 395.571402 181.8 
L 396.970029 177.902141 
L 398.368377 170.610078 
L 401.165352 122.708012 
L 402.563979 127.869391 
L 403.962327 134.305969 
L 405.360954 138.108207 
L 406.759302 144.94625 
L 409.556277 127.402962 
L 410.954904 96.74856 
L 412.353252 121.81895 
L 413.751879 124.805849 
L 415.150506 140.765175 
L 416.548854 131.102279 
L 417.947481 148.414906 
L 419.345829 156.302597 
L 420.744456 157.850062 
L 422.142804 129.25992 
L 423.541431 128.581079 
L 424.939779 150.685008 
L 426.338406 170.869205 
L 427.736754 176.41672 
L 429.135381 179.794865 
L 430.533729 181.445251 
L 431.932356 181.8 
L 535.420989 181.777372 
L 536.819616 181.498536 
L 539.616591 180.343777 
L 541.014939 180.20217 
L 543.811914 180.360566 
L 546.608889 180.135015 
L 549.406143 179.749609 
L 552.203118 180.027715 
L 556.398441 179.97297 
L 557.797068 179.73793 
L 559.195416 178.806532 
L 560.594043 178.226962 
L 561.992391 178.322584 
L 563.391018 177.880972 
L 564.789366 177.941557 
L 566.187993 178.194845 
L 567.586341 178.739377 
L 568.984968 178.879525 
L 570.383595 178.897044 
L 573.18057 179.389751 
L 574.578918 179.339385 
L 575.977545 178.641566 
L 577.375893 179.129163 
L 578.77452 178.999965 
L 581.571495 177.032057 
L 584.36847 178.201414 
L 585.766818 177.404324 
L 587.165445 176.470006 
L 589.96242 176.480225 
L 591.360768 176.42475 
L 594.158022 173.831286 
L 595.55637 173.397704 
L 596.954997 173.185293 
L 598.353345 172.484554 
L 599.751972 172.287471 
L 601.15032 172.277982 
L 602.548947 170.431973 
L 603.947295 169.789629 
L 606.74427 170.69329 
L 608.142897 174.300635 
L 610.939872 171.983818 
L 612.33822 172.918866 
L 613.736847 172.739302 
L 615.135474 172.819595 
L 616.533822 172.042212 
L 617.932449 170.556062 
L 619.330797 168.803485 
L 620.729424 170.707159 
L 622.127772 171.856079 
L 623.526399 169.164074 
L 624.924747 172.331267 
L 626.323374 171.352423 
L 627.721722 170.992564 
L 629.120349 171.812283 
L 630.518697 173.910119 
L 631.917324 174.107932 
L 633.315672 173.538582 
L 634.714299 173.705737 
L 636.112647 172.765579 
L 637.511274 174.415235 
L 638.909901 175.405029 
L 640.308249 174.445163 
L 641.706876 175.267801 
L 643.105224 175.38824 
L 644.503851 174.332022 
L 645.902199 172.994049 
L 647.300826 172.87215 
L 648.699174 173.21303 
L 648.699174 173.21303 
" clip-path="url(#peb52de0da3)" style="fill: none; stroke: #ff0000; stroke-width: 2.5; stroke-linecap: square"/>
   </g>
   <g id="line2d_19">
    <path d="M 89.300826 181.8 
L 208.172961 181.8 
L 209.571309 182.13942 
L 210.969936 188.463588 
L 212.368284 188.035845 
L 213.766911 190.365072 
L 215.165538 187.966501 
L 216.563886 185.958447 
L 217.962513 185.731437 
L 219.360861 184.866462 
L 220.759488 184.454048 
L 222.157836 185.298584 
L 223.556463 191.019825 
L 224.954811 191.213988 
L 226.353438 190.465803 
L 229.150413 191.592095 
L 231.947388 202.102446 
L 233.345736 203.957214 
L 234.744363 204.087143 
L 236.14299 209.641958 
L 237.541338 210.753651 
L 238.939965 203.386404 
L 240.338313 210.506202 
L 241.73694 207.720036 
L 243.135288 214.786548 
L 244.533915 209.027351 
L 245.932263 206.262353 
L 247.33089 199.253505 
L 248.729238 205.990817 
L 250.127865 200.487827 
L 251.526213 203.380565 
L 252.92484 203.518523 
L 254.323188 209.977728 
L 255.721815 211.78724 
L 257.120163 211.855854 
L 258.51879 212.573382 
L 259.917417 217.960311 
L 261.315765 220.193186 
L 262.714392 227.319553 
L 264.11274 217.817244 
L 265.511367 205.512708 
L 266.909715 204.135319 
L 268.308342 199.174672 
L 269.70669 196.236679 
L 271.105317 197.641806 
L 272.503665 196.011129 
L 273.902292 198.62868 
L 275.30064 200.494397 
L 276.699267 193.237371 
L 278.097615 191.52859 
L 279.496242 195.07535 
L 280.894869 193.611098 
L 282.293217 194.224245 
L 283.691844 189.58039 
L 285.090192 189.086953 
L 286.488819 190.887706 
L 287.887167 190.124193 
L 289.285794 192.498675 
L 290.684142 195.433019 
L 292.082769 192.622035 
L 293.481117 193.908912 
L 294.879744 194.576074 
L 296.278092 189.757035 
L 299.075067 184.608065 
L 300.473694 184.140906 
L 301.872042 185.436542 
L 303.270669 187.204448 
L 304.669296 187.614672 
L 306.067644 184.155504 
L 307.466271 182.632857 
L 308.864619 182.965708 
L 310.263246 182.431395 
L 311.661594 181.708028 
L 313.060221 183.342355 
L 314.458569 183.362793 
L 315.857196 181.151087 
L 317.255544 180.08538 
L 318.654171 180.935026 
L 320.052519 180.269324 
L 321.451146 180.134286 
L 322.849494 180.99634 
L 324.248121 181.130648 
L 327.045096 182.731399 
L 328.443723 183.305858 
L 329.842071 182.902934 
L 331.240698 182.82994 
L 332.639046 183.587614 
L 334.037673 184.121197 
L 336.834648 188.248257 
L 338.232996 186.181077 
L 339.631623 184.991281 
L 341.029971 187.63438 
L 342.428598 184.108788 
L 343.826946 182.14672 
L 345.225573 184.340908 
L 346.623921 185.34676 
L 348.022548 189.58258 
L 349.421175 189.940249 
L 350.819523 184.745293 
L 352.21815 181.8 
L 440.323281 181.8 
L 441.721908 161.121636 
L 443.120256 146.671089 
L 444.518883 167.130472 
L 445.917231 158.874893 
L 447.315858 144.47982 
L 448.714206 163.793203 
L 450.112833 164.982999 
L 451.511181 155.796752 
L 452.909808 131.194251 
L 455.706783 155.434703 
L 457.105131 161.987341 
L 458.503758 159.193145 
L 459.902385 162.091722 
L 461.300733 153.156572 
L 464.097708 152.736859 
L 465.496335 166.107831 
L 466.894683 165.599795 
L 468.29331 161.436239 
L 469.691658 152.806203 
L 471.090285 142.608994 
L 472.488633 129.123422 
L 473.88726 128.839477 
L 475.285608 130.669427 
L 476.684235 111.62831 
L 478.082583 112.930516 
L 479.48121 116.66341 
L 480.879837 94.1113 
L 482.278185 66.3 
L 483.676812 85.98419 
L 485.07516 99.588742 
L 486.473787 155.618647 
L 487.872135 166.288855 
L 489.270762 174.084574 
L 490.66911 168.648009 
L 492.067737 171.013732 
L 493.466085 177.207971 
L 494.864712 181.8 
L 542.413566 181.749634 
L 543.811914 181.364958 
L 546.608889 180.19487 
L 552.203118 180.223338 
L 555.000093 179.751069 
L 560.594043 180.08611 
L 563.391018 179.916765 
L 566.187993 178.274408 
L 567.586341 178.309445 
L 568.984968 178.622588 
L 570.383595 178.347402 
L 571.781943 177.737175 
L 573.18057 177.878783 
L 574.578918 178.320394 
L 577.375893 178.834999 
L 580.172868 178.970767 
L 581.571495 178.664924 
L 582.969843 179.213106 
L 584.36847 178.891204 
L 585.766818 178.372219 
L 587.165445 177.388995 
L 588.563793 176.640811 
L 589.96242 177.752504 
L 591.360768 177.153226 
L 592.759395 175.661966 
L 594.158022 175.875108 
L 595.55637 176.723293 
L 596.954997 176.031314 
L 598.353345 174.548813 
L 601.15032 174.056836 
L 602.548947 173.621065 
L 603.947295 173.009378 
L 605.345922 172.815215 
L 606.74427 170.35241 
L 608.142897 169.735614 
L 609.541245 169.583057 
L 610.939872 172.386012 
L 612.33822 170.604968 
L 613.736847 170.758255 
L 615.135474 170.628326 
L 616.533822 173.78603 
L 617.932449 172.043672 
L 620.729424 171.787465 
L 622.127772 170.995484 
L 623.526399 168.690345 
L 624.924747 170.788912 
L 626.323374 171.882356 
L 627.721722 170.266278 
L 629.120349 174.260489 
L 630.518697 172.372874 
L 631.917324 170.256788 
L 633.315672 171.438555 
L 634.714299 173.157555 
L 636.112647 173.959755 
L 637.511274 173.742964 
L 638.909901 173.765592 
L 640.308249 173.139307 
L 641.706876 174.063406 
L 643.105224 174.190415 
L 644.503851 175.026922 
L 645.902199 174.225452 
L 647.300826 175.167799 
L 648.699174 174.780933 
L 648.699174 174.780933 
" clip-path="url(#peb52de0da3)" style="fill: none; stroke: #0000ff; stroke-width: 2.5; stroke-linecap: square"/>
   </g>
   <g id="line2d_20">
    <path d="M 369 320.4 
L 369 43.2 
" clip-path="url(#peb52de0da3)" style="fill: none; stroke-dasharray: 5.55,2.4; stroke-dashoffset: 0; stroke: #000000; stroke-width: 1.5"/>
   </g>
   <g id="line2d_21">
    <path d="M 90 181.8 
L 648 181.8 
" clip-path="url(#peb52de0da3)" style="fill: none; stroke-dasharray: 5.55,2.4; stroke-dashoffset: 0; stroke: #000000; stroke-width: 1.5"/>
   </g>
   <g id="patch_3">
    <path d="M 90 320.4 
L 90 43.2 
" style="fill: none; stroke: #000000; stroke-width: 0.8; stroke-linejoin: miter; stroke-linecap: square"/>
   </g>
   <g id="patch_4">
    <path d="M 648 320.4 
L 648 43.2 
" style="fill: none; stroke: #000000; stroke-width: 0.8; stroke-linejoin: miter; stroke-linecap: square"/>
   </g>
   <g id="patch_5">
    <path d="M 90 320.4 
L 648 320.4 
" style="fill: none; stroke: #000000; stroke-width: 0.8; stroke-linejoin: miter; stroke-linecap: square"/>
   </g>
   <g id="patch_6">
    <path d="M 90 43.2 
L 648 43.2 
" style="fill: none; stroke: #000000; stroke-width: 0.8; stroke-linejoin: miter; stroke-linecap: square"/>
   </g>
   <g id="legend_1">
    <g id="patch_7">
     <path d="M 595.0125 72.2325 
L 642.4 72.2325 
Q 644 72.2325 644 70.6325 
L 644 48.8 
Q 644 47.2 642.4 47.2 
L 595.0125 47.2 
Q 593.4125 47.2 593.4125 48.8 
L 593.4125 70.6325 
Q 593.4125 72.2325 595.0125 72.2325 
z
" style="fill: #ffffff; opacity: 0.8; stroke: #cccccc; stroke-linejoin: miter"/>
    </g>
    <g id="line2d_22">
     <path d="M 596.6125 53.32625 
L 604.6125 53.32625 
L 612.6125 53.32625 
" style="fill: none; stroke: #ff0000; stroke-width: 2.5; stroke-linecap: square"/>
    </g>
    <g id="text_20">
     <!-- -up -->
     <g transform="translate(619.0125 56.12625) scale(0.08 -0.08)">
      <defs>
       <path id="ArialMT-2d" d="M 203 1375 
L 203 1941 
L 1931 1941 
L 1931 1375 
L 203 1375 
z
" transform="scale(0.015625)"/>
       <path id="ArialMT-75" d="M 2597 0 
L 2597 488 
Q 2209 -75 1544 -75 
Q 1250 -75 995 37 
Q 741 150 617 320 
Q 494 491 444 738 
Q 409 903 409 1263 
L 409 3319 
L 972 3319 
L 972 1478 
Q 972 1038 1006 884 
Q 1059 663 1231 536 
Q 1403 409 1656 409 
Q 1909 409 2131 539 
Q 2353 669 2445 892 
Q 2538 1116 2538 1541 
L 2538 3319 
L 3100 3319 
L 3100 0 
L 2597 0 
z
" transform="scale(0.015625)"/>
       <path id="ArialMT-70" d="M 422 -1272 
L 422 3319 
L 934 3319 
L 934 2888 
Q 1116 3141 1344 3267 
Q 1572 3394 1897 3394 
Q 2322 3394 2647 3175 
Q 2972 2956 3137 2557 
Q 3303 2159 3303 1684 
Q 3303 1175 3120 767 
Q 2938 359 2589 142 
Q 2241 -75 1856 -75 
Q 1575 -75 1351 44 
Q 1128 163 984 344 
L 984 -1272 
L 422 -1272 
z
M 931 1641 
Q 931 1000 1190 694 
Q 1450 388 1819 388 
Q 2194 388 2461 705 
Q 2728 1022 2728 1688 
Q 2728 2322 2467 2637 
Q 2206 2953 1844 2953 
Q 1484 2953 1207 2617 
Q 931 2281 931 1641 
z
" transform="scale(0.015625)"/>
      </defs>
      <use xlink:href="#ArialMT-2d"/>
      <use xlink:href="#ArialMT-75" x="33.300781"/>
      <use xlink:href="#ArialMT-70" x="88.916016"/>
     </g>
    </g>
    <g id="line2d_23">
     <path d="M 596.6125 64.6425 
L 604.6125 64.6425 
L 612.6125 64.6425 
" style="fill: none; stroke: #0000ff; stroke-width: 2.5; stroke-linecap: square"/>
    </g>
    <g id="text_21">
     <!-- -down -->
     <g transform="translate(619.0125 67.4425) scale(0.08 -0.08)">
      <defs>
       <path id="ArialMT-64" d="M 2575 0 
L 2575 419 
Q 2259 -75 1647 -75 
Q 1250 -75 917 144 
Q 584 363 401 755 
Q 219 1147 219 1656 
Q 219 2153 384 2558 
Q 550 2963 881 3178 
Q 1213 3394 1622 3394 
Q 1922 3394 2156 3267 
Q 2391 3141 2538 2938 
L 2538 4581 
L 3097 4581 
L 3097 0 
L 2575 0 
z
M 797 1656 
Q 797 1019 1065 703 
Q 1334 388 1700 388 
Q 2069 388 2326 689 
Q 2584 991 2584 1609 
Q 2584 2291 2321 2609 
Q 2059 2928 1675 2928 
Q 1300 2928 1048 2622 
Q 797 2316 797 1656 
z
" transform="scale(0.015625)"/>
       <path id="ArialMT-6f" d="M 213 1659 
Q 213 2581 725 3025 
Q 1153 3394 1769 3394 
Q 2453 3394 2887 2945 
Q 3322 2497 3322 1706 
Q 3322 1066 3130 698 
Q 2938 331 2570 128 
Q 2203 -75 1769 -75 
Q 1072 -75 642 372 
Q 213 819 213 1659 
z
M 791 1659 
Q 791 1022 1069 705 
Q 1347 388 1769 388 
Q 2188 388 2466 706 
Q 2744 1025 2744 1678 
Q 2744 2294 2464 2611 
Q 2184 2928 1769 2928 
Q 1347 2928 1069 2612 
Q 791 2297 791 1659 
z
" transform="scale(0.015625)"/>
       <path id="ArialMT-77" d="M 1034 0 
L 19 3319 
L 600 3319 
L 1128 1403 
L 1325 691 
Q 1338 744 1497 1375 
L 2025 3319 
L 2603 3319 
L 3100 1394 
L 3266 759 
L 3456 1400 
L 4025 3319 
L 4572 3319 
L 3534 0 
L 2950 0 
L 2422 1988 
L 2294 2553 
L 1622 0 
L 1034 0 
z
" transform="scale(0.015625)"/>
       <path id="ArialMT-6e" d="M 422 0 
L 422 3319 
L 928 3319 
L 928 2847 
Q 1294 3394 1984 3394 
Q 2284 3394 2536 3286 
Q 2788 3178 2913 3003 
Q 3038 2828 3088 2588 
Q 3119 2431 3119 2041 
L 3119 0 
L 2556 0 
L 2556 2019 
Q 2556 2363 2490 2533 
Q 2425 2703 2258 2804 
Q 2091 2906 1866 2906 
Q 1506 2906 1245 2678 
Q 984 2450 984 1813 
L 984 0 
L 422 0 
z
" transform="scale(0.015625)"/>
      </defs>
      <use xlink:href="#ArialMT-2d"/>
      <use xlink:href="#ArialMT-64" x="33.300781"/>
      <use xlink:href="#ArialMT-6f" x="88.916016"/>
      <use xlink:href="#ArialMT-77" x="144.53125"/>
      <use xlink:href="#ArialMT-6e" x="216.748047"/>
     </g>
    </g>
   </g>
  </g>
 </g>
 <defs>
  <clipPath id="peb52de0da3">
   <rect x="90" y="43.2" width="558" height="277.2"/>
  </clipPath>
 </defs>
</svg>
