<?xml version="1.0" encoding="utf-8" standalone="no"?>
<!DOCTYPE svg PUBLIC "-//W3C//DTD SVG 1.1//EN"
  "http://www.w3.org/Graphics/SVG/1.1/DTD/svg11.dtd">
<svg xmlns:xlink="http://www.w3.org/1999/xlink" width="720pt" height="360pt" viewBox="0 0 720 360" xmlns="http://www.w3.org/2000/svg" version="1.1">
 <metadata>
  <rdf:RDF xmlns:dc="http://purl.org/dc/elements/1.1/" xmlns:cc="http://creativecommons.org/ns#" xmlns:rdf="http://www.w3.org/1999/02/22-rdf-syntax-ns#">
   <cc:Work>
    <dc:type rdf:resource="http://purl.org/dc/dcmitype/StillImage"/>
    <dc:date>2025-08-21T22:48:53.246403</dc:date>
    <dc:format>image/svg+xml</dc:format>
    <dc:creator>
     <cc:Agent>
      <dc:title>Matplotlib v3.8.4, https://matplotlib.org/</dc:title>
     </cc:Agent>
    </dc:creator>
   </cc:Work>
  </rdf:RDF>
 </metadata>
 <defs>
  <style type="text/css">*{stroke-linejoin: round; stroke-linecap: butt}</style>
 </defs>
 <g id="figure_1">
  <g id="patch_1">
   <path d="M 0 360 
L 720 360 
L 720 0 
L 0 0 
z
" style="fill: #ffffff"/>
  </g>
  <g id="axes_1">
   <g id="patch_2">
    <path d="M 90 320.4 
L 648 320.4 
L 648 43.2 
L 90 43.2 
z
" style="fill: #ffffff"/>
   </g>
   <g id="PolyCollection_1"/>
   <g id="PolyCollection_2"/>
   <g id="matplotlib.axis_1">
    <g id="xtick_1">
     <g id="line2d_1">
      <defs>
       <path id="mde78d7a922" d="M 0 0 
L 0 -3.5 
" style="stroke: #000000; stroke-width: 0.8"/>
      </defs>
      <g>
       <use xlink:href="#mde78d7a922" x="90" y="320.4" style="stroke: #000000; stroke-width: 0.8"/>
      </g>
     </g>
     <g id="text_1">
      <!-- −10 -->
      <g transform="translate(83.215 329.62625) scale(0.08 -0.08)">
       <defs>
        <path id="ArialMT-2212" d="M 3381 1997 
L 356 1997 
L 356 2522 
L 3381 2522 
L 3381 1997 
z
" transform="scale(0.015625)"/>
        <path id="ArialMT-31" d="M 2384 0 
L 1822 0 
L 1822 3584 
Q 1619 3391 1289 3197 
Q 959 3003 697 2906 
L 697 3450 
Q 1169 3672 1522 3987 
Q 1875 4303 2022 4600 
L 2384 4600 
L 2384 0 
z
" transform="scale(0.015625)"/>
        <path id="ArialMT-30" d="M 266 2259 
Q 266 3072 433 3567 
Q 600 4063 929 4331 
Q 1259 4600 1759 4600 
Q 2128 4600 2406 4451 
Q 2684 4303 2865 4023 
Q 3047 3744 3150 3342 
Q 3253 2941 3253 2259 
Q 3253 1453 3087 958 
Q 2922 463 2592 192 
Q 2263 -78 1759 -78 
Q 1097 -78 719 397 
Q 266 969 266 2259 
z
M 844 2259 
Q 844 1131 1108 757 
Q 1372 384 1759 384 
Q 2147 384 2411 759 
Q 2675 1134 2675 2259 
Q 2675 3391 2411 3762 
Q 2147 4134 1753 4134 
Q 1366 4134 1134 3806 
Q 844 3388 844 2259 
z
" transform="scale(0.015625)"/>
       </defs>
       <use xlink:href="#ArialMT-2212"/>
       <use xlink:href="#ArialMT-31" x="58.398438"/>
       <use xlink:href="#ArialMT-30" x="114.013672"/>
      </g>
     </g>
    </g>
    <g id="xtick_2">
     <g id="line2d_2">
      <g>
       <use xlink:href="#mde78d7a922" x="145.8" y="320.4" style="stroke: #000000; stroke-width: 0.8"/>
      </g>
     </g>
     <g id="text_2">
      <!-- −8 -->
      <g transform="translate(141.239375 329.62625) scale(0.08 -0.08)">
       <defs>
        <path id="ArialMT-38" d="M 1131 2484 
Q 781 2613 612 2850 
Q 444 3088 444 3419 
Q 444 3919 803 4259 
Q 1163 4600 1759 4600 
Q 2359 4600 2725 4251 
Q 3091 3903 3091 3403 
Q 3091 3084 2923 2848 
Q 2756 2613 2416 2484 
Q 2838 2347 3058 2040 
Q 3278 1734 3278 1309 
Q 3278 722 2862 322 
Q 2447 -78 1769 -78 
Q 1091 -78 675 323 
Q 259 725 259 1325 
Q 259 1772 486 2073 
Q 713 2375 1131 2484 
z
M 1019 3438 
Q 1019 3113 1228 2906 
Q 1438 2700 1772 2700 
Q 2097 2700 2305 2904 
Q 2513 3109 2513 3406 
Q 2513 3716 2298 3927 
Q 2084 4138 1766 4138 
Q 1444 4138 1231 3931 
Q 1019 3725 1019 3438 
z
M 838 1322 
Q 838 1081 952 856 
Q 1066 631 1291 507 
Q 1516 384 1775 384 
Q 2178 384 2440 643 
Q 2703 903 2703 1303 
Q 2703 1709 2433 1975 
Q 2163 2241 1756 2241 
Q 1359 2241 1098 1978 
Q 838 1716 838 1322 
z
" transform="scale(0.015625)"/>
       </defs>
       <use xlink:href="#ArialMT-2212"/>
       <use xlink:href="#ArialMT-38" x="58.398438"/>
      </g>
     </g>
    </g>
    <g id="xtick_3">
     <g id="line2d_3">
      <g>
       <use xlink:href="#mde78d7a922" x="201.6" y="320.4" style="stroke: #000000; stroke-width: 0.8"/>
      </g>
     </g>
     <g id="text_3">
      <!-- −6 -->
      <g transform="translate(197.039375 329.62625) scale(0.08 -0.08)">
       <defs>
        <path id="ArialMT-36" d="M 3184 3459 
L 2625 3416 
Q 2550 3747 2413 3897 
Q 2184 4138 1850 4138 
Q 1581 4138 1378 3988 
Q 1113 3794 959 3422 
Q 806 3050 800 2363 
Q 1003 2672 1297 2822 
Q 1591 2972 1913 2972 
Q 2475 2972 2870 2558 
Q 3266 2144 3266 1488 
Q 3266 1056 3080 686 
Q 2894 316 2569 119 
Q 2244 -78 1831 -78 
Q 1128 -78 684 439 
Q 241 956 241 2144 
Q 241 3472 731 4075 
Q 1159 4600 1884 4600 
Q 2425 4600 2770 4297 
Q 3116 3994 3184 3459 
z
M 888 1484 
Q 888 1194 1011 928 
Q 1134 663 1356 523 
Q 1578 384 1822 384 
Q 2178 384 2434 671 
Q 2691 959 2691 1453 
Q 2691 1928 2437 2201 
Q 2184 2475 1800 2475 
Q 1419 2475 1153 2201 
Q 888 1928 888 1484 
z
" transform="scale(0.015625)"/>
       </defs>
       <use xlink:href="#ArialMT-2212"/>
       <use xlink:href="#ArialMT-36" x="58.398438"/>
      </g>
     </g>
    </g>
    <g id="xtick_4">
     <g id="line2d_4">
      <g>
       <use xlink:href="#mde78d7a922" x="257.4" y="320.4" style="stroke: #000000; stroke-width: 0.8"/>
      </g>
     </g>
     <g id="text_4">
      <!-- −4 -->
      <g transform="translate(252.839375 329.62625) scale(0.08 -0.08)">
       <defs>
        <path id="ArialMT-34" d="M 2069 0 
L 2069 1097 
L 81 1097 
L 81 1613 
L 2172 4581 
L 2631 4581 
L 2631 1613 
L 3250 1613 
L 3250 1097 
L 2631 1097 
L 2631 0 
L 2069 0 
z
M 2069 1613 
L 2069 3678 
L 634 1613 
L 2069 1613 
z
" transform="scale(0.015625)"/>
       </defs>
       <use xlink:href="#ArialMT-2212"/>
       <use xlink:href="#ArialMT-34" x="58.398438"/>
      </g>
     </g>
    </g>
    <g id="xtick_5">
     <g id="line2d_5">
      <g>
       <use xlink:href="#mde78d7a922" x="313.2" y="320.4" style="stroke: #000000; stroke-width: 0.8"/>
      </g>
     </g>
     <g id="text_5">
      <!-- −2 -->
      <g transform="translate(308.639375 329.62625) scale(0.08 -0.08)">
       <defs>
        <path id="ArialMT-32" d="M 3222 541 
L 3222 0 
L 194 0 
Q 188 203 259 391 
Q 375 700 629 1000 
Q 884 1300 1366 1694 
Q 2113 2306 2375 2664 
Q 2638 3022 2638 3341 
Q 2638 3675 2398 3904 
Q 2159 4134 1775 4134 
Q 1369 4134 1125 3890 
Q 881 3647 878 3216 
L 300 3275 
Q 359 3922 746 4261 
Q 1134 4600 1788 4600 
Q 2447 4600 2831 4234 
Q 3216 3869 3216 3328 
Q 3216 3053 3103 2787 
Q 2991 2522 2730 2228 
Q 2469 1934 1863 1422 
Q 1356 997 1212 845 
Q 1069 694 975 541 
L 3222 541 
z
" transform="scale(0.015625)"/>
       </defs>
       <use xlink:href="#ArialMT-2212"/>
       <use xlink:href="#ArialMT-32" x="58.398438"/>
      </g>
     </g>
    </g>
    <g id="xtick_6">
     <g id="line2d_6">
      <g>
       <use xlink:href="#mde78d7a922" x="369" y="320.4" style="stroke: #000000; stroke-width: 0.8"/>
      </g>
     </g>
     <g id="text_6">
      <!-- 0 -->
      <g transform="translate(366.775625 329.62625) scale(0.08 -0.08)">
       <use xlink:href="#ArialMT-30"/>
      </g>
     </g>
    </g>
    <g id="xtick_7">
     <g id="line2d_7">
      <g>
       <use xlink:href="#mde78d7a922" x="424.8" y="320.4" style="stroke: #000000; stroke-width: 0.8"/>
      </g>
     </g>
     <g id="text_7">
      <!-- 2 -->
      <g transform="translate(422.575625 329.62625) scale(0.08 -0.08)">
       <use xlink:href="#ArialMT-32"/>
      </g>
     </g>
    </g>
    <g id="xtick_8">
     <g id="line2d_8">
      <g>
       <use xlink:href="#mde78d7a922" x="480.6" y="320.4" style="stroke: #000000; stroke-width: 0.8"/>
      </g>
     </g>
     <g id="text_8">
      <!-- 4 -->
      <g transform="translate(478.375625 329.62625) scale(0.08 -0.08)">
       <use xlink:href="#ArialMT-34"/>
      </g>
     </g>
    </g>
    <g id="xtick_9">
     <g id="line2d_9">
      <g>
       <use xlink:href="#mde78d7a922" x="536.4" y="320.4" style="stroke: #000000; stroke-width: 0.8"/>
      </g>
     </g>
     <g id="text_9">
      <!-- 6 -->
      <g transform="translate(534.175625 329.62625) scale(0.08 -0.08)">
       <use xlink:href="#ArialMT-36"/>
      </g>
     </g>
    </g>
    <g id="xtick_10">
     <g id="line2d_10">
      <g>
       <use xlink:href="#mde78d7a922" x="592.2" y="320.4" style="stroke: #000000; stroke-width: 0.8"/>
      </g>
     </g>
     <g id="text_10">
      <!-- 8 -->
      <g transform="translate(589.975625 329.62625) scale(0.08 -0.08)">
       <use xlink:href="#ArialMT-38"/>
      </g>
     </g>
    </g>
    <g id="text_11">
     <!-- Energy $E-E_f$ -->
     <g transform="translate(336.8 342.51625) scale(0.1 -0.1)">
      <defs>
       <path id="Arial-BoldMT-45" d="M 466 0 
L 466 4581 
L 3863 4581 
L 3863 3806 
L 1391 3806 
L 1391 2791 
L 3691 2791 
L 3691 2019 
L 1391 2019 
L 1391 772 
L 3950 772 
L 3950 0 
L 466 0 
z
" transform="scale(0.015625)"/>
       <path id="Arial-BoldMT-6e" d="M 3478 0 
L 2600 0 
L 2600 1694 
Q 2600 2231 2544 2389 
Q 2488 2547 2361 2634 
Q 2234 2722 2056 2722 
Q 1828 2722 1647 2597 
Q 1466 2472 1398 2265 
Q 1331 2059 1331 1503 
L 1331 0 
L 453 0 
L 453 3319 
L 1269 3319 
L 1269 2831 
Q 1703 3394 2363 3394 
Q 2653 3394 2893 3289 
Q 3134 3184 3257 3021 
Q 3381 2859 3429 2653 
Q 3478 2447 3478 2063 
L 3478 0 
z
" transform="scale(0.015625)"/>
       <path id="Arial-BoldMT-65" d="M 2381 1056 
L 3256 909 
Q 3088 428 2723 176 
Q 2359 -75 1813 -75 
Q 947 -75 531 491 
Q 203 944 203 1634 
Q 203 2459 634 2926 
Q 1066 3394 1725 3394 
Q 2466 3394 2894 2905 
Q 3322 2416 3303 1406 
L 1103 1406 
Q 1113 1016 1316 798 
Q 1519 581 1822 581 
Q 2028 581 2168 693 
Q 2309 806 2381 1056 
z
M 2431 1944 
Q 2422 2325 2234 2523 
Q 2047 2722 1778 2722 
Q 1491 2722 1303 2513 
Q 1116 2303 1119 1944 
L 2431 1944 
z
" transform="scale(0.015625)"/>
       <path id="Arial-BoldMT-72" d="M 1300 0 
L 422 0 
L 422 3319 
L 1238 3319 
L 1238 2847 
Q 1447 3181 1614 3287 
Q 1781 3394 1994 3394 
Q 2294 3394 2572 3228 
L 2300 2463 
Q 2078 2606 1888 2606 
Q 1703 2606 1575 2504 
Q 1447 2403 1373 2137 
Q 1300 1872 1300 1025 
L 1300 0 
z
" transform="scale(0.015625)"/>
       <path id="Arial-BoldMT-67" d="M 378 -219 
L 1381 -341 
Q 1406 -516 1497 -581 
Q 1622 -675 1891 -675 
Q 2234 -675 2406 -572 
Q 2522 -503 2581 -350 
Q 2622 -241 2622 53 
L 2622 538 
Q 2228 0 1628 0 
Q 959 0 569 566 
Q 263 1013 263 1678 
Q 263 2513 664 2953 
Q 1066 3394 1663 3394 
Q 2278 3394 2678 2853 
L 2678 3319 
L 3500 3319 
L 3500 341 
Q 3500 -247 3403 -537 
Q 3306 -828 3131 -993 
Q 2956 -1159 2664 -1253 
Q 2372 -1347 1925 -1347 
Q 1081 -1347 728 -1058 
Q 375 -769 375 -325 
Q 375 -281 378 -219 
z
M 1163 1728 
Q 1163 1200 1367 954 
Q 1572 709 1872 709 
Q 2194 709 2416 961 
Q 2638 1213 2638 1706 
Q 2638 2222 2425 2472 
Q 2213 2722 1888 2722 
Q 1572 2722 1367 2476 
Q 1163 2231 1163 1728 
z
" transform="scale(0.015625)"/>
       <path id="Arial-BoldMT-79" d="M 44 3319 
L 978 3319 
L 1772 963 
L 2547 3319 
L 3456 3319 
L 2284 125 
L 2075 -453 
Q 1959 -744 1854 -897 
Q 1750 -1050 1614 -1145 
Q 1478 -1241 1279 -1294 
Q 1081 -1347 831 -1347 
Q 578 -1347 334 -1294 
L 256 -606 
Q 463 -647 628 -647 
Q 934 -647 1081 -467 
Q 1228 -288 1306 -9 
L 44 3319 
z
" transform="scale(0.015625)"/>
       <path id="Arial-BoldMT-20" transform="scale(0.015625)"/>
       <path id="DejaVuSans-Oblique-45" d="M 1081 4666 
L 4031 4666 
L 3928 4134 
L 1606 4134 
L 1338 2753 
L 3566 2753 
L 3463 2222 
L 1234 2222 
L 909 531 
L 3284 531 
L 3181 0 
L 172 0 
L 1081 4666 
z
" transform="scale(0.015625)"/>
       <path id="DejaVuSans-2212" d="M 678 2272 
L 4684 2272 
L 4684 1741 
L 678 1741 
L 678 2272 
z
" transform="scale(0.015625)"/>
       <path id="DejaVuSans-Oblique-66" d="M 3059 4863 
L 2969 4384 
L 2419 4384 
Q 2106 4384 1964 4261 
Q 1822 4138 1753 3809 
L 1691 3500 
L 2638 3500 
L 2553 3053 
L 1606 3053 
L 1013 0 
L 434 0 
L 1031 3053 
L 481 3053 
L 563 3500 
L 1113 3500 
L 1159 3744 
Q 1278 4363 1576 4613 
Q 1875 4863 2516 4863 
L 3059 4863 
z
" transform="scale(0.015625)"/>
      </defs>
      <use xlink:href="#Arial-BoldMT-45" transform="translate(0 0.09375)"/>
      <use xlink:href="#Arial-BoldMT-6e" transform="translate(66.699219 0.09375)"/>
      <use xlink:href="#Arial-BoldMT-65" transform="translate(127.783203 0.09375)"/>
      <use xlink:href="#Arial-BoldMT-72" transform="translate(183.398438 0.09375)"/>
      <use xlink:href="#Arial-BoldMT-67" transform="translate(222.314453 0.09375)"/>
      <use xlink:href="#Arial-BoldMT-79" transform="translate(283.398438 0.09375)"/>
      <use xlink:href="#Arial-BoldMT-20" transform="translate(339.013672 0.09375)"/>
      <use xlink:href="#DejaVuSans-Oblique-45" transform="translate(366.796875 0.09375)"/>
      <use xlink:href="#DejaVuSans-2212" transform="translate(449.462891 0.09375)"/>
      <use xlink:href="#DejaVuSans-Oblique-45" transform="translate(552.734375 0.09375)"/>
      <use xlink:href="#DejaVuSans-Oblique-66" transform="translate(615.917969 -16.3125) scale(0.7)"/>
     </g>
    </g>
   </g>
   <g id="matplotlib.axis_2">
    <g id="ytick_1">
     <g id="line2d_11">
      <defs>
       <path id="mce9a236be4" d="M 0 0 
L 3.5 0 
" style="stroke: #000000; stroke-width: 0.8"/>
      </defs>
      <g>
       <use xlink:href="#mce9a236be4" x="90" y="311.926183" style="stroke: #000000; stroke-width: 0.8"/>
      </g>
     </g>
     <g id="text_12">
      <!-- −2.0 -->
      <g transform="translate(70.7075 314.789308) scale(0.08 -0.08)">
       <defs>
        <path id="ArialMT-2e" d="M 581 0 
L 581 641 
L 1222 641 
L 1222 0 
L 581 0 
z
" transform="scale(0.015625)"/>
       </defs>
       <use xlink:href="#ArialMT-2212"/>
       <use xlink:href="#ArialMT-32" x="58.398438"/>
       <use xlink:href="#ArialMT-2e" x="114.013672"/>
       <use xlink:href="#ArialMT-30" x="141.796875"/>
      </g>
     </g>
    </g>
    <g id="ytick_2">
     <g id="line2d_12">
      <g>
       <use xlink:href="#mce9a236be4" x="90" y="279.394637" style="stroke: #000000; stroke-width: 0.8"/>
      </g>
     </g>
     <g id="text_13">
      <!-- −1.5 -->
      <g transform="translate(70.7075 282.257762) scale(0.08 -0.08)">
       <defs>
        <path id="ArialMT-35" d="M 266 1200 
L 856 1250 
Q 922 819 1161 601 
Q 1400 384 1738 384 
Q 2144 384 2425 690 
Q 2706 997 2706 1503 
Q 2706 1984 2436 2262 
Q 2166 2541 1728 2541 
Q 1456 2541 1237 2417 
Q 1019 2294 894 2097 
L 366 2166 
L 809 4519 
L 3088 4519 
L 3088 3981 
L 1259 3981 
L 1013 2750 
Q 1425 3038 1878 3038 
Q 2478 3038 2890 2622 
Q 3303 2206 3303 1553 
Q 3303 931 2941 478 
Q 2500 -78 1738 -78 
Q 1113 -78 717 272 
Q 322 622 266 1200 
z
" transform="scale(0.015625)"/>
       </defs>
       <use xlink:href="#ArialMT-2212"/>
       <use xlink:href="#ArialMT-31" x="58.398438"/>
       <use xlink:href="#ArialMT-2e" x="114.013672"/>
       <use xlink:href="#ArialMT-35" x="141.796875"/>
      </g>
     </g>
    </g>
    <g id="ytick_3">
     <g id="line2d_13">
      <g>
       <use xlink:href="#mce9a236be4" x="90" y="246.863091" style="stroke: #000000; stroke-width: 0.8"/>
      </g>
     </g>
     <g id="text_14">
      <!-- −1.0 -->
      <g transform="translate(70.7075 249.726216) scale(0.08 -0.08)">
       <use xlink:href="#ArialMT-2212"/>
       <use xlink:href="#ArialMT-31" x="58.398438"/>
       <use xlink:href="#ArialMT-2e" x="114.013672"/>
       <use xlink:href="#ArialMT-30" x="141.796875"/>
      </g>
     </g>
    </g>
    <g id="ytick_4">
     <g id="line2d_14">
      <g>
       <use xlink:href="#mce9a236be4" x="90" y="214.331546" style="stroke: #000000; stroke-width: 0.8"/>
      </g>
     </g>
     <g id="text_15">
      <!-- −0.5 -->
      <g transform="translate(70.7075 217.194671) scale(0.08 -0.08)">
       <use xlink:href="#ArialMT-2212"/>
       <use xlink:href="#ArialMT-30" x="58.398438"/>
       <use xlink:href="#ArialMT-2e" x="114.013672"/>
       <use xlink:href="#ArialMT-35" x="141.796875"/>
      </g>
     </g>
    </g>
    <g id="ytick_5">
     <g id="line2d_15">
      <g>
       <use xlink:href="#mce9a236be4" x="90" y="181.8" style="stroke: #000000; stroke-width: 0.8"/>
      </g>
     </g>
     <g id="text_16">
      <!-- 0.0 -->
      <g transform="translate(75.38 184.663125) scale(0.08 -0.08)">
       <use xlink:href="#ArialMT-30"/>
       <use xlink:href="#ArialMT-2e" x="55.615234"/>
       <use xlink:href="#ArialMT-30" x="83.398438"/>
      </g>
     </g>
    </g>
    <g id="ytick_6">
     <g id="line2d_16">
      <g>
       <use xlink:href="#mce9a236be4" x="90" y="149.268454" style="stroke: #000000; stroke-width: 0.8"/>
      </g>
     </g>
     <g id="text_17">
      <!-- 0.5 -->
      <g transform="translate(75.38 152.131579) scale(0.08 -0.08)">
       <use xlink:href="#ArialMT-30"/>
       <use xlink:href="#ArialMT-2e" x="55.615234"/>
       <use xlink:href="#ArialMT-35" x="83.398438"/>
      </g>
     </g>
    </g>
    <g id="ytick_7">
     <g id="line2d_17">
      <g>
       <use xlink:href="#mce9a236be4" x="90" y="116.736909" style="stroke: #000000; stroke-width: 0.8"/>
      </g>
     </g>
     <g id="text_18">
      <!-- 1.0 -->
      <g transform="translate(75.38 119.600034) scale(0.08 -0.08)">
       <use xlink:href="#ArialMT-31"/>
       <use xlink:href="#ArialMT-2e" x="55.615234"/>
       <use xlink:href="#ArialMT-30" x="83.398438"/>
      </g>
     </g>
    </g>
    <g id="ytick_8">
     <g id="line2d_18">
      <g>
       <use xlink:href="#mce9a236be4" x="90" y="84.205363" style="stroke: #000000; stroke-width: 0.8"/>
      </g>
     </g>
     <g id="text_19">
      <!-- 1.5 -->
      <g transform="translate(75.38 87.068488) scale(0.08 -0.08)">
       <use xlink:href="#ArialMT-31"/>
       <use xlink:href="#ArialMT-2e" x="55.615234"/>
       <use xlink:href="#ArialMT-35" x="83.398438"/>
      </g>
     </g>
    </g>
    <g id="ytick_9">
     <g id="line2d_19">
      <g>
       <use xlink:href="#mce9a236be4" x="90" y="51.673817" style="stroke: #000000; stroke-width: 0.8"/>
      </g>
     </g>
     <g id="text_20">
      <!-- 2.0 -->
      <g transform="translate(75.38 54.536942) scale(0.08 -0.08)">
       <use xlink:href="#ArialMT-32"/>
       <use xlink:href="#ArialMT-2e" x="55.615234"/>
       <use xlink:href="#ArialMT-30" x="83.398438"/>
      </g>
     </g>
    </g>
    <g id="text_21">
     <!-- -COHP -->
     <g transform="translate(64.734062 197.910937) rotate(-90) scale(0.1 -0.1)">
      <defs>
       <path id="Arial-BoldMT-2d" d="M 359 1222 
L 359 2100 
L 2084 2100 
L 2084 1222 
L 359 1222 
z
" transform="scale(0.015625)"/>
       <path id="Arial-BoldMT-43" d="M 3397 1684 
L 4294 1400 
Q 4088 650 3608 286 
Q 3128 -78 2391 -78 
Q 1478 -78 890 545 
Q 303 1169 303 2250 
Q 303 3394 893 4026 
Q 1484 4659 2447 4659 
Q 3288 4659 3813 4163 
Q 4125 3869 4281 3319 
L 3366 3100 
Q 3284 3456 3026 3662 
Q 2769 3869 2400 3869 
Q 1891 3869 1573 3503 
Q 1256 3138 1256 2319 
Q 1256 1450 1568 1081 
Q 1881 713 2381 713 
Q 2750 713 3015 947 
Q 3281 1181 3397 1684 
z
" transform="scale(0.015625)"/>
       <path id="Arial-BoldMT-4f" d="M 278 2263 
Q 278 2963 488 3438 
Q 644 3788 914 4066 
Q 1184 4344 1506 4478 
Q 1934 4659 2494 4659 
Q 3506 4659 4114 4031 
Q 4722 3403 4722 2284 
Q 4722 1175 4119 548 
Q 3516 -78 2506 -78 
Q 1484 -78 881 545 
Q 278 1169 278 2263 
z
M 1231 2294 
Q 1231 1516 1590 1114 
Q 1950 713 2503 713 
Q 3056 713 3411 1111 
Q 3766 1509 3766 2306 
Q 3766 3094 3420 3481 
Q 3075 3869 2503 3869 
Q 1931 3869 1581 3476 
Q 1231 3084 1231 2294 
z
" transform="scale(0.015625)"/>
       <path id="Arial-BoldMT-48" d="M 469 0 
L 469 4581 
L 1394 4581 
L 1394 2778 
L 3206 2778 
L 3206 4581 
L 4131 4581 
L 4131 0 
L 3206 0 
L 3206 2003 
L 1394 2003 
L 1394 0 
L 469 0 
z
" transform="scale(0.015625)"/>
       <path id="Arial-BoldMT-50" d="M 466 0 
L 466 4581 
L 1950 4581 
Q 2794 4581 3050 4513 
Q 3444 4409 3709 4064 
Q 3975 3719 3975 3172 
Q 3975 2750 3822 2462 
Q 3669 2175 3433 2011 
Q 3197 1847 2953 1794 
Q 2622 1728 1994 1728 
L 1391 1728 
L 1391 0 
L 466 0 
z
M 1391 3806 
L 1391 2506 
L 1897 2506 
Q 2444 2506 2628 2578 
Q 2813 2650 2917 2803 
Q 3022 2956 3022 3159 
Q 3022 3409 2875 3571 
Q 2728 3734 2503 3775 
Q 2338 3806 1838 3806 
L 1391 3806 
z
" transform="scale(0.015625)"/>
      </defs>
      <use xlink:href="#Arial-BoldMT-2d"/>
      <use xlink:href="#Arial-BoldMT-43" x="33.300781"/>
      <use xlink:href="#Arial-BoldMT-4f" x="105.517578"/>
      <use xlink:href="#Arial-BoldMT-48" x="183.300781"/>
      <use xlink:href="#Arial-BoldMT-50" x="255.517578"/>
     </g>
    </g>
   </g>
   <g id="line2d_20">
    <path d="M 89.300826 181.8 
L 170.413659 181.8 
L 171.812007 185.997871 
L 173.210634 199.882334 
L 174.608982 195.586869 
L 176.007609 185.634819 
L 177.405957 202.547969 
L 178.804584 196.197161 
L 180.202932 192.178864 
L 181.601559 195.362401 
L 182.999907 205.08543 
L 184.398534 213.692626 
L 185.796882 209.792744 
L 187.195509 213.071274 
L 188.593857 216.69789 
L 189.992484 199.855008 
L 191.391111 200.093789 
L 192.789459 199.792547 
L 194.188086 194.617429 
L 195.586434 192.400079 
L 196.985061 197.86733 
L 198.383409 195.230974 
L 199.782036 206.098462 
L 201.180384 207.815477 
L 202.579011 206.412066 
L 203.977359 213.934661 
L 205.375986 201.505008 
L 206.774334 198.450296 
L 208.172961 194.642153 
L 209.571309 193.132039 
L 210.969936 195.693573 
L 212.368284 197.417094 
L 213.766911 196.357867 
L 215.165538 192.856171 
L 216.563886 189.737697 
L 217.962513 195.806782 
L 219.360861 197.869933 
L 220.759488 195.140536 
L 223.556463 213.529318 
L 224.954811 215.009503 
L 226.353438 202.770485 
L 227.751786 212.826636 
L 229.150413 208.565655 
L 230.548761 210.607334 
L 231.947388 197.913525 
L 233.345736 189.960864 
L 234.744363 192.614136 
L 236.14299 192.209444 
L 237.541338 190.179476 
L 238.939965 189.962815 
L 240.338313 189.027208 
L 241.73694 189.822279 
L 243.135288 194.173699 
L 244.533915 193.282985 
L 245.932263 194.256979 
L 247.33089 196.07224 
L 248.729238 194.604416 
L 250.127865 191.405264 
L 251.526213 190.156703 
L 252.92484 184.045978 
L 254.323188 188.169677 
L 255.721815 187.105244 
L 257.120163 184.721333 
L 258.51879 180.359503 
L 259.917417 183.382985 
L 261.315765 183.671865 
L 262.714392 184.744105 
L 264.11274 185.985509 
L 265.511367 183.099961 
L 266.909715 182.712185 
L 268.308342 181.825375 
L 269.70669 179.961317 
L 271.105317 178.647043 
L 272.503665 181.781132 
L 273.902292 182.019263 
L 275.30064 182.688111 
L 276.699267 185.211258 
L 278.097615 183.401853 
L 279.496242 186.796195 
L 280.894869 183.554101 
L 282.293217 179.128509 
L 283.691844 177.393927 
L 285.090192 173.110174 
L 286.488819 170.469913 
L 287.887167 173.368474 
L 289.285794 174.082867 
L 290.684142 170.391838 
L 292.082769 172.262401 
L 293.481117 175.288486 
L 294.879744 172.75558 
L 296.278092 171.3847 
L 297.676719 171.274093 
L 299.075067 172.677504 
L 300.473694 172.001498 
L 301.872042 170.866798 
L 303.270669 170.235035 
L 304.669296 170.469913 
L 306.067644 163.533537 
L 307.466271 163.389097 
L 308.864619 165.48608 
L 310.263246 169.191424 
L 311.661594 168.998186 
L 313.060221 167.669598 
L 314.458569 167.635114 
L 315.857196 171.087362 
L 317.255544 172.292981 
L 318.654171 174.8903 
L 320.052519 174.067902 
L 321.451146 172.963131 
L 322.849494 173.571471 
L 324.248121 173.224034 
L 325.646748 175.297595 
L 327.045096 175.980106 
L 328.443723 176.322989 
L 329.842071 178.544894 
L 331.240698 178.364018 
L 332.639046 178.318474 
L 334.037673 177.068612 
L 335.436021 173.596195 
L 336.834648 172.767942 
L 338.232996 174.446569 
L 339.631623 177.171412 
L 341.029971 178.69584 
L 342.428598 176.016542 
L 343.826946 175.956684 
L 345.225573 175.514255 
L 346.623921 176.327543 
L 348.022548 175.542232 
L 349.421175 178.842882 
L 350.819523 180.842271 
L 352.21815 180.456447 
L 353.616498 181.504614 
L 355.015125 181.6972 
L 356.413473 182.900217 
L 357.8121 188.07989 
L 359.210448 186.830678 
L 360.609075 181.040714 
L 362.007423 181.786987 
L 367.601373 181.701104 
L 369 181.586593 
L 370.398627 181.8 
L 395.571402 181.8 
L 396.970029 176.28265 
L 398.368377 173.926065 
L 399.767004 165.614905 
L 401.165352 159.827543 
L 402.563979 161.547812 
L 403.962327 153.416226 
L 405.360954 143.581289 
L 406.759302 132.277879 
L 408.157929 126.826242 
L 409.556277 126.457985 
L 410.954904 115.675079 
L 412.353252 122.428628 
L 413.751879 160.073482 
L 415.150506 165.132788 
L 416.548854 158.835982 
L 417.947481 154.520347 
L 419.345829 137.527819 
L 420.744456 101.334523 
L 422.142804 104.336534 
L 423.541431 154.128017 
L 424.939779 167.184227 
L 426.338406 162.836061 
L 429.135381 181.555363 
L 430.533729 181.764866 
L 436.127958 181.8 
L 535.420989 181.790891 
L 538.217964 181.446057 
L 539.616591 181.203371 
L 542.413566 181.226144 
L 543.811914 181.218336 
L 545.210541 181.04722 
L 546.608889 180.73817 
L 548.007516 180.161711 
L 549.406143 179.267094 
L 555.000093 179.928135 
L 556.398441 180.025729 
L 557.797068 179.575493 
L 559.195416 177.306092 
L 560.594043 176.572831 
L 561.992391 177.333419 
L 563.391018 177.942409 
L 566.187993 178.114176 
L 567.586341 178.239097 
L 568.984968 178.224783 
L 571.781943 177.519499 
L 573.18057 177.679554 
L 574.578918 178.103766 
L 575.977545 178.268375 
L 577.375893 178.883222 
L 578.77452 179.284661 
L 580.172868 178.608005 
L 581.571495 176.859759 
L 584.36847 180.182532 
L 587.165445 179.592409 
L 591.360768 179.749862 
L 594.158022 178.331487 
L 595.55637 176.824625 
L 596.954997 174.995051 
L 598.353345 174.150532 
L 601.15032 170.572713 
L 602.548947 171.607216 
L 603.947295 172.9833 
L 605.345922 173.373679 
L 606.74427 171.78614 
L 608.142897 174.473896 
L 609.541245 174.741305 
L 610.939872 174.115398 
L 612.33822 172.399685 
L 613.736847 174.388013 
L 615.135474 172.263052 
L 616.533822 170.385331 
L 617.932449 173.598147 
L 619.330797 172.891562 
L 620.729424 175.669105 
L 622.127772 176.020446 
L 623.526399 172.661889 
L 624.924747 176.028253 
L 626.323374 177.719243 
L 627.721722 176.853253 
L 629.120349 175.579318 
L 630.518697 175.401045 
L 631.917324 176.295662 
L 633.315672 175.760844 
L 634.714299 175.508399 
L 636.112647 173.718513 
L 637.511274 174.827188 
L 638.909901 175.482374 
L 640.308249 175.057512 
L 641.706876 175.060114 
L 643.105224 174.919578 
L 644.503851 174.256585 
L 645.902199 172.575355 
L 647.300826 172.919539 
L 648.699174 173.408162 
L 648.699174 173.408162 
" clip-path="url(#pa2272abb51)" style="fill: none; stroke: #ff0000; stroke-width: 2.5; stroke-linecap: square"/>
   </g>
   <g id="line2d_21">
    <path d="M 89.300826 181.8 
L 208.172961 181.8 
L 209.571309 182.269105 
L 210.969936 189.531447 
L 212.368284 191.970012 
L 213.766911 202.315694 
L 215.165538 193.512658 
L 216.563886 197.951262 
L 217.962513 210.054949 
L 219.360861 209.823324 
L 220.759488 207.656723 
L 222.157836 206.103017 
L 223.556463 202.946806 
L 224.954811 199.240812 
L 226.353438 198.590832 
L 227.751786 197.117153 
L 229.150413 200.513446 
L 230.548761 205.77705 
L 231.947388 205.0028 
L 233.345736 197.223856 
L 234.744363 192.567291 
L 236.14299 192.773541 
L 237.541338 196.709858 
L 240.338313 193.33959 
L 241.73694 192.873088 
L 243.135288 192.838604 
L 244.533915 191.630382 
L 245.932263 191.384444 
L 247.33089 194.476893 
L 248.729238 194.441108 
L 250.127865 194.202326 
L 251.526213 199.384602 
L 252.92484 201.071037 
L 255.721815 194.822378 
L 257.120163 196.535489 
L 258.51879 197.767784 
L 259.917417 196.712461 
L 261.315765 199.652662 
L 262.714392 196.873817 
L 264.11274 194.861416 
L 265.511367 193.951183 
L 266.909715 197.465241 
L 268.308342 198.516009 
L 269.70669 204.933833 
L 271.105317 198.820505 
L 272.503665 193.934267 
L 273.902292 194.508774 
L 275.30064 196.958399 
L 276.699267 190.802129 
L 278.097615 191.643395 
L 279.496242 193.021431 
L 280.894869 195.484069 
L 282.293217 197.238821 
L 283.691844 194.881585 
L 285.090192 195.444381 
L 286.488819 191.891936 
L 287.887167 189.522989 
L 289.285794 188.611455 
L 290.684142 188.925059 
L 292.082769 189.973226 
L 293.481117 187.531408 
L 294.879744 187.234069 
L 296.278092 184.879436 
L 297.676719 186.057729 
L 299.075067 185.679712 
L 300.473694 186.504712 
L 301.872042 186.070741 
L 303.270669 186.316029 
L 304.669296 184.153983 
L 306.067644 184.012145 
L 307.466271 184.016049 
L 308.864619 183.67642 
L 310.263246 183.200808 
L 311.661594 184.610075 
L 314.458569 184.106487 
L 315.857196 184.052484 
L 317.255544 182.909326 
L 318.654171 181.502662 
L 320.052519 178.504554 
L 321.451146 177.65483 
L 322.849494 180.73752 
L 324.248121 181.984129 
L 325.646748 181.61392 
L 327.045096 182.638013 
L 328.443723 182.381664 
L 329.842071 180.775256 
L 331.240698 179.91252 
L 332.639046 181.283399 
L 334.037673 181.436297 
L 335.436021 181.350414 
L 336.834648 181.004278 
L 338.232996 181.884582 
L 339.631623 181.734937 
L 341.029971 181.764866 
L 342.428598 180.997772 
L 346.623921 181.515674 
L 349.421175 181.382946 
L 350.819523 181.499409 
L 352.21815 181.8 
L 440.323281 181.8 
L 441.721908 176.534444 
L 443.120256 174.234464 
L 444.518883 176.745899 
L 445.917231 177.181171 
L 447.315858 166.923324 
L 448.714206 175.650237 
L 450.112833 177.547476 
L 451.511181 178.855895 
L 452.909808 177.422555 
L 454.308156 169.577248 
L 455.706783 167.724901 
L 457.105131 175.460903 
L 458.503758 175.306053 
L 459.902385 169.601321 
L 461.300733 141.341818 
L 462.69936 130.528332 
L 464.097708 162.086534 
L 465.496335 176.247516 
L 466.894683 166.075552 
L 468.29331 174.053588 
L 469.691658 152.919144 
L 471.090285 125.116384 
L 472.488633 135.522575 
L 473.88726 104.389886 
L 475.285608 66.3 
L 476.684235 75.95211 
L 478.082583 75.90071 
L 479.48121 118.3778 
L 480.879837 147.101853 
L 482.278185 118.962717 
L 483.676812 117.928864 
L 485.07516 165.457453 
L 486.473787 161.377997 
L 487.872135 153.816364 
L 489.270762 153.291956 
L 490.66911 168.475729 
L 492.067737 181.368632 
L 494.864712 181.8 
L 542.413566 181.781782 
L 545.210541 181.430442 
L 546.608889 181.237855 
L 550.804491 181.228095 
L 552.203118 180.997772 
L 553.601466 180.613249 
L 555.000093 179.697812 
L 556.398441 179.554673 
L 557.797068 179.812323 
L 561.992391 180.194243 
L 563.391018 180.064117 
L 564.789366 178.287894 
L 566.187993 177.114807 
L 567.586341 177.600828 
L 568.984968 178.506506 
L 570.383595 178.645091 
L 571.781943 178.432985 
L 574.578918 178.486337 
L 575.977545 178.542942 
L 577.375893 178.437539 
L 578.77452 177.765438 
L 580.172868 177.816838 
L 581.571495 178.022437 
L 584.36847 179.092725 
L 585.766818 179.270998 
L 587.165445 178.457058 
L 588.563793 176.588446 
L 589.96242 179.470741 
L 591.360768 179.915122 
L 592.759395 179.137618 
L 594.158022 179.049783 
L 595.55637 179.541009 
L 596.954997 178.930718 
L 598.353345 178.560509 
L 599.751972 177.008754 
L 601.15032 175.868198 
L 602.548947 174.375651 
L 603.947295 173.752346 
L 605.345922 171.607216 
L 606.74427 171.454968 
L 608.142897 173.016483 
L 609.541245 173.460864 
L 610.939872 174.314491 
L 612.33822 171.816719 
L 613.736847 175.939117 
L 615.135474 174.182413 
L 616.533822 174.140773 
L 617.932449 173.93127 
L 619.330797 172.75623 
L 620.729424 172.427662 
L 622.127772 173.98332 
L 623.526399 172.954022 
L 624.924747 174.902011 
L 626.323374 175.52011 
L 627.721722 173.985923 
L 629.120349 176.617725 
L 630.518697 177.614491 
L 631.917324 176.536396 
L 633.315672 175.146648 
L 634.714299 175.069874 
L 636.112647 176.080954 
L 637.511274 175.399744 
L 638.909901 175.449842 
L 640.308249 173.671668 
L 641.706876 174.367192 
L 644.503851 175.015871 
L 645.902199 174.475197 
L 647.300826 174.609878 
L 648.699174 174.379554 
L 648.699174 174.379554 
" clip-path="url(#pa2272abb51)" style="fill: none; stroke: #0000ff; stroke-width: 2.5; stroke-linecap: square"/>
   </g>
   <g id="line2d_22">
    <path d="M 369 320.4 
L 369 43.2 
" clip-path="url(#pa2272abb51)" style="fill: none; stroke-dasharray: 5.55,2.4; stroke-dashoffset: 0; stroke: #000000; stroke-width: 1.5"/>
   </g>
   <g id="line2d_23">
    <path d="M 90 181.8 
L 648 181.8 
" clip-path="url(#pa2272abb51)" style="fill: none; stroke-dasharray: 5.55,2.4; stroke-dashoffset: 0; stroke: #000000; stroke-width: 1.5"/>
   </g>
   <g id="patch_3">
    <path d="M 90 320.4 
L 90 43.2 
" style="fill: none; stroke: #000000; stroke-width: 0.8; stroke-linejoin: miter; stroke-linecap: square"/>
   </g>
   <g id="patch_4">
    <path d="M 648 320.4 
L 648 43.2 
" style="fill: none; stroke: #000000; stroke-width: 0.8; stroke-linejoin: miter; stroke-linecap: square"/>
   </g>
   <g id="patch_5">
    <path d="M 90 320.4 
L 648 320.4 
" style="fill: none; stroke: #000000; stroke-width: 0.8; stroke-linejoin: miter; stroke-linecap: square"/>
   </g>
   <g id="patch_6">
    <path d="M 90 43.2 
L 648 43.2 
" style="fill: none; stroke: #000000; stroke-width: 0.8; stroke-linejoin: miter; stroke-linecap: square"/>
   </g>
   <g id="legend_1">
    <g id="patch_7">
     <path d="M 595.0125 72.2325 
L 642.4 72.2325 
Q 644 72.2325 644 70.6325 
L 644 48.8 
Q 644 47.2 642.4 47.2 
L 595.0125 47.2 
Q 593.4125 47.2 593.4125 48.8 
L 593.4125 70.6325 
Q 593.4125 72.2325 595.0125 72.2325 
z
" style="fill: #ffffff; opacity: 0.8; stroke: #cccccc; stroke-linejoin: miter"/>
    </g>
    <g id="line2d_24">
     <path d="M 596.6125 53.32625 
L 604.6125 53.32625 
L 612.6125 53.32625 
" style="fill: none; stroke: #ff0000; stroke-width: 2.5; stroke-linecap: square"/>
    </g>
    <g id="text_22">
     <!-- -up -->
     <g transform="translate(619.0125 56.12625) scale(0.08 -0.08)">
      <defs>
       <path id="ArialMT-2d" d="M 203 1375 
L 203 1941 
L 1931 1941 
L 1931 1375 
L 203 1375 
z
" transform="scale(0.015625)"/>
       <path id="ArialMT-75" d="M 2597 0 
L 2597 488 
Q 2209 -75 1544 -75 
Q 1250 -75 995 37 
Q 741 150 617 320 
Q 494 491 444 738 
Q 409 903 409 1263 
L 409 3319 
L 972 3319 
L 972 1478 
Q 972 1038 1006 884 
Q 1059 663 1231 536 
Q 1403 409 1656 409 
Q 1909 409 2131 539 
Q 2353 669 2445 892 
Q 2538 1116 2538 1541 
L 2538 3319 
L 3100 3319 
L 3100 0 
L 2597 0 
z
" transform="scale(0.015625)"/>
       <path id="ArialMT-70" d="M 422 -1272 
L 422 3319 
L 934 3319 
L 934 2888 
Q 1116 3141 1344 3267 
Q 1572 3394 1897 3394 
Q 2322 3394 2647 3175 
Q 2972 2956 3137 2557 
Q 3303 2159 3303 1684 
Q 3303 1175 3120 767 
Q 2938 359 2589 142 
Q 2241 -75 1856 -75 
Q 1575 -75 1351 44 
Q 1128 163 984 344 
L 984 -1272 
L 422 -1272 
z
M 931 1641 
Q 931 1000 1190 694 
Q 1450 388 1819 388 
Q 2194 388 2461 705 
Q 2728 1022 2728 1688 
Q 2728 2322 2467 2637 
Q 2206 2953 1844 2953 
Q 1484 2953 1207 2617 
Q 931 2281 931 1641 
z
" transform="scale(0.015625)"/>
      </defs>
      <use xlink:href="#ArialMT-2d"/>
      <use xlink:href="#ArialMT-75" x="33.300781"/>
      <use xlink:href="#ArialMT-70" x="88.916016"/>
     </g>
    </g>
    <g id="line2d_25">
     <path d="M 596.6125 64.6425 
L 604.6125 64.6425 
L 612.6125 64.6425 
" style="fill: none; stroke: #0000ff; stroke-width: 2.5; stroke-linecap: square"/>
    </g>
    <g id="text_23">
     <!-- -down -->
     <g transform="translate(619.0125 67.4425) scale(0.08 -0.08)">
      <defs>
       <path id="ArialMT-64" d="M 2575 0 
L 2575 419 
Q 2259 -75 1647 -75 
Q 1250 -75 917 144 
Q 584 363 401 755 
Q 219 1147 219 1656 
Q 219 2153 384 2558 
Q 550 2963 881 3178 
Q 1213 3394 1622 3394 
Q 1922 3394 2156 3267 
Q 2391 3141 2538 2938 
L 2538 4581 
L 3097 4581 
L 3097 0 
L 2575 0 
z
M 797 1656 
Q 797 1019 1065 703 
Q 1334 388 1700 388 
Q 2069 388 2326 689 
Q 2584 991 2584 1609 
Q 2584 2291 2321 2609 
Q 2059 2928 1675 2928 
Q 1300 2928 1048 2622 
Q 797 2316 797 1656 
z
" transform="scale(0.015625)"/>
       <path id="ArialMT-6f" d="M 213 1659 
Q 213 2581 725 3025 
Q 1153 3394 1769 3394 
Q 2453 3394 2887 2945 
Q 3322 2497 3322 1706 
Q 3322 1066 3130 698 
Q 2938 331 2570 128 
Q 2203 -75 1769 -75 
Q 1072 -75 642 372 
Q 213 819 213 1659 
z
M 791 1659 
Q 791 1022 1069 705 
Q 1347 388 1769 388 
Q 2188 388 2466 706 
Q 2744 1025 2744 1678 
Q 2744 2294 2464 2611 
Q 2184 2928 1769 2928 
Q 1347 2928 1069 2612 
Q 791 2297 791 1659 
z
" transform="scale(0.015625)"/>
       <path id="ArialMT-77" d="M 1034 0 
L 19 3319 
L 600 3319 
L 1128 1403 
L 1325 691 
Q 1338 744 1497 1375 
L 2025 3319 
L 2603 3319 
L 3100 1394 
L 3266 759 
L 3456 1400 
L 4025 3319 
L 4572 3319 
L 3534 0 
L 2950 0 
L 2422 1988 
L 2294 2553 
L 1622 0 
L 1034 0 
z
" transform="scale(0.015625)"/>
       <path id="ArialMT-6e" d="M 422 0 
L 422 3319 
L 928 3319 
L 928 2847 
Q 1294 3394 1984 3394 
Q 2284 3394 2536 3286 
Q 2788 3178 2913 3003 
Q 3038 2828 3088 2588 
Q 3119 2431 3119 2041 
L 3119 0 
L 2556 0 
L 2556 2019 
Q 2556 2363 2490 2533 
Q 2425 2703 2258 2804 
Q 2091 2906 1866 2906 
Q 1506 2906 1245 2678 
Q 984 2450 984 1813 
L 984 0 
L 422 0 
z
" transform="scale(0.015625)"/>
      </defs>
      <use xlink:href="#ArialMT-2d"/>
      <use xlink:href="#ArialMT-64" x="33.300781"/>
      <use xlink:href="#ArialMT-6f" x="88.916016"/>
      <use xlink:href="#ArialMT-77" x="144.53125"/>
      <use xlink:href="#ArialMT-6e" x="216.748047"/>
     </g>
    </g>
   </g>
  </g>
 </g>
 <defs>
  <clipPath id="pa2272abb51">
   <rect x="90" y="43.2" width="558" height="277.2"/>
  </clipPath>
 </defs>
</svg>
