<?xml version="1.0" encoding="utf-8" standalone="no"?>
<!DOCTYPE svg PUBLIC "-//W3C//DTD SVG 1.1//EN"
  "http://www.w3.org/Graphics/SVG/1.1/DTD/svg11.dtd">
<svg xmlns:xlink="http://www.w3.org/1999/xlink" width="720pt" height="360pt" viewBox="0 0 720 360" xmlns="http://www.w3.org/2000/svg" version="1.1">
 <metadata>
  <rdf:RDF xmlns:dc="http://purl.org/dc/elements/1.1/" xmlns:cc="http://creativecommons.org/ns#" xmlns:rdf="http://www.w3.org/1999/02/22-rdf-syntax-ns#">
   <cc:Work>
    <dc:type rdf:resource="http://purl.org/dc/dcmitype/StillImage"/>
    <dc:date>2025-08-21T22:54:25.183762</dc:date>
    <dc:format>image/svg+xml</dc:format>
    <dc:creator>
     <cc:Agent>
      <dc:title>Matplotlib v3.8.4, https://matplotlib.org/</dc:title>
     </cc:Agent>
    </dc:creator>
   </cc:Work>
  </rdf:RDF>
 </metadata>
 <defs>
  <style type="text/css">*{stroke-linejoin: round; stroke-linecap: butt}</style>
 </defs>
 <g id="figure_1">
  <g id="patch_1">
   <path d="M 0 360 
L 720 360 
L 720 0 
L 0 0 
z
" style="fill: #ffffff"/>
  </g>
  <g id="axes_1">
   <g id="patch_2">
    <path d="M 90 320.4 
L 648 320.4 
L 648 43.2 
L 90 43.2 
z
" style="fill: #ffffff"/>
   </g>
   <g id="PolyCollection_1"/>
   <g id="PolyCollection_2"/>
   <g id="matplotlib.axis_1">
    <g id="xtick_1">
     <g id="line2d_1">
      <defs>
       <path id="m5be3cec52d" d="M 0 0 
L 0 -3.5 
" style="stroke: #000000; stroke-width: 0.8"/>
      </defs>
      <g>
       <use xlink:href="#m5be3cec52d" x="90" y="320.4" style="stroke: #000000; stroke-width: 0.8"/>
      </g>
     </g>
     <g id="text_1">
      <!-- −10 -->
      <g transform="translate(83.215 329.62625) scale(0.08 -0.08)">
       <defs>
        <path id="ArialMT-2212" d="M 3381 1997 
L 356 1997 
L 356 2522 
L 3381 2522 
L 3381 1997 
z
" transform="scale(0.015625)"/>
        <path id="ArialMT-31" d="M 2384 0 
L 1822 0 
L 1822 3584 
Q 1619 3391 1289 3197 
Q 959 3003 697 2906 
L 697 3450 
Q 1169 3672 1522 3987 
Q 1875 4303 2022 4600 
L 2384 4600 
L 2384 0 
z
" transform="scale(0.015625)"/>
        <path id="ArialMT-30" d="M 266 2259 
Q 266 3072 433 3567 
Q 600 4063 929 4331 
Q 1259 4600 1759 4600 
Q 2128 4600 2406 4451 
Q 2684 4303 2865 4023 
Q 3047 3744 3150 3342 
Q 3253 2941 3253 2259 
Q 3253 1453 3087 958 
Q 2922 463 2592 192 
Q 2263 -78 1759 -78 
Q 1097 -78 719 397 
Q 266 969 266 2259 
z
M 844 2259 
Q 844 1131 1108 757 
Q 1372 384 1759 384 
Q 2147 384 2411 759 
Q 2675 1134 2675 2259 
Q 2675 3391 2411 3762 
Q 2147 4134 1753 4134 
Q 1366 4134 1134 3806 
Q 844 3388 844 2259 
z
" transform="scale(0.015625)"/>
       </defs>
       <use xlink:href="#ArialMT-2212"/>
       <use xlink:href="#ArialMT-31" x="58.398438"/>
       <use xlink:href="#ArialMT-30" x="114.013672"/>
      </g>
     </g>
    </g>
    <g id="xtick_2">
     <g id="line2d_2">
      <g>
       <use xlink:href="#m5be3cec52d" x="145.8" y="320.4" style="stroke: #000000; stroke-width: 0.8"/>
      </g>
     </g>
     <g id="text_2">
      <!-- −8 -->
      <g transform="translate(141.239375 329.62625) scale(0.08 -0.08)">
       <defs>
        <path id="ArialMT-38" d="M 1131 2484 
Q 781 2613 612 2850 
Q 444 3088 444 3419 
Q 444 3919 803 4259 
Q 1163 4600 1759 4600 
Q 2359 4600 2725 4251 
Q 3091 3903 3091 3403 
Q 3091 3084 2923 2848 
Q 2756 2613 2416 2484 
Q 2838 2347 3058 2040 
Q 3278 1734 3278 1309 
Q 3278 722 2862 322 
Q 2447 -78 1769 -78 
Q 1091 -78 675 323 
Q 259 725 259 1325 
Q 259 1772 486 2073 
Q 713 2375 1131 2484 
z
M 1019 3438 
Q 1019 3113 1228 2906 
Q 1438 2700 1772 2700 
Q 2097 2700 2305 2904 
Q 2513 3109 2513 3406 
Q 2513 3716 2298 3927 
Q 2084 4138 1766 4138 
Q 1444 4138 1231 3931 
Q 1019 3725 1019 3438 
z
M 838 1322 
Q 838 1081 952 856 
Q 1066 631 1291 507 
Q 1516 384 1775 384 
Q 2178 384 2440 643 
Q 2703 903 2703 1303 
Q 2703 1709 2433 1975 
Q 2163 2241 1756 2241 
Q 1359 2241 1098 1978 
Q 838 1716 838 1322 
z
" transform="scale(0.015625)"/>
       </defs>
       <use xlink:href="#ArialMT-2212"/>
       <use xlink:href="#ArialMT-38" x="58.398438"/>
      </g>
     </g>
    </g>
    <g id="xtick_3">
     <g id="line2d_3">
      <g>
       <use xlink:href="#m5be3cec52d" x="201.6" y="320.4" style="stroke: #000000; stroke-width: 0.8"/>
      </g>
     </g>
     <g id="text_3">
      <!-- −6 -->
      <g transform="translate(197.039375 329.62625) scale(0.08 -0.08)">
       <defs>
        <path id="ArialMT-36" d="M 3184 3459 
L 2625 3416 
Q 2550 3747 2413 3897 
Q 2184 4138 1850 4138 
Q 1581 4138 1378 3988 
Q 1113 3794 959 3422 
Q 806 3050 800 2363 
Q 1003 2672 1297 2822 
Q 1591 2972 1913 2972 
Q 2475 2972 2870 2558 
Q 3266 2144 3266 1488 
Q 3266 1056 3080 686 
Q 2894 316 2569 119 
Q 2244 -78 1831 -78 
Q 1128 -78 684 439 
Q 241 956 241 2144 
Q 241 3472 731 4075 
Q 1159 4600 1884 4600 
Q 2425 4600 2770 4297 
Q 3116 3994 3184 3459 
z
M 888 1484 
Q 888 1194 1011 928 
Q 1134 663 1356 523 
Q 1578 384 1822 384 
Q 2178 384 2434 671 
Q 2691 959 2691 1453 
Q 2691 1928 2437 2201 
Q 2184 2475 1800 2475 
Q 1419 2475 1153 2201 
Q 888 1928 888 1484 
z
" transform="scale(0.015625)"/>
       </defs>
       <use xlink:href="#ArialMT-2212"/>
       <use xlink:href="#ArialMT-36" x="58.398438"/>
      </g>
     </g>
    </g>
    <g id="xtick_4">
     <g id="line2d_4">
      <g>
       <use xlink:href="#m5be3cec52d" x="257.4" y="320.4" style="stroke: #000000; stroke-width: 0.8"/>
      </g>
     </g>
     <g id="text_4">
      <!-- −4 -->
      <g transform="translate(252.839375 329.62625) scale(0.08 -0.08)">
       <defs>
        <path id="ArialMT-34" d="M 2069 0 
L 2069 1097 
L 81 1097 
L 81 1613 
L 2172 4581 
L 2631 4581 
L 2631 1613 
L 3250 1613 
L 3250 1097 
L 2631 1097 
L 2631 0 
L 2069 0 
z
M 2069 1613 
L 2069 3678 
L 634 1613 
L 2069 1613 
z
" transform="scale(0.015625)"/>
       </defs>
       <use xlink:href="#ArialMT-2212"/>
       <use xlink:href="#ArialMT-34" x="58.398438"/>
      </g>
     </g>
    </g>
    <g id="xtick_5">
     <g id="line2d_5">
      <g>
       <use xlink:href="#m5be3cec52d" x="313.2" y="320.4" style="stroke: #000000; stroke-width: 0.8"/>
      </g>
     </g>
     <g id="text_5">
      <!-- −2 -->
      <g transform="translate(308.639375 329.62625) scale(0.08 -0.08)">
       <defs>
        <path id="ArialMT-32" d="M 3222 541 
L 3222 0 
L 194 0 
Q 188 203 259 391 
Q 375 700 629 1000 
Q 884 1300 1366 1694 
Q 2113 2306 2375 2664 
Q 2638 3022 2638 3341 
Q 2638 3675 2398 3904 
Q 2159 4134 1775 4134 
Q 1369 4134 1125 3890 
Q 881 3647 878 3216 
L 300 3275 
Q 359 3922 746 4261 
Q 1134 4600 1788 4600 
Q 2447 4600 2831 4234 
Q 3216 3869 3216 3328 
Q 3216 3053 3103 2787 
Q 2991 2522 2730 2228 
Q 2469 1934 1863 1422 
Q 1356 997 1212 845 
Q 1069 694 975 541 
L 3222 541 
z
" transform="scale(0.015625)"/>
       </defs>
       <use xlink:href="#ArialMT-2212"/>
       <use xlink:href="#ArialMT-32" x="58.398438"/>
      </g>
     </g>
    </g>
    <g id="xtick_6">
     <g id="line2d_6">
      <g>
       <use xlink:href="#m5be3cec52d" x="369" y="320.4" style="stroke: #000000; stroke-width: 0.8"/>
      </g>
     </g>
     <g id="text_6">
      <!-- 0 -->
      <g transform="translate(366.775625 329.62625) scale(0.08 -0.08)">
       <use xlink:href="#ArialMT-30"/>
      </g>
     </g>
    </g>
    <g id="xtick_7">
     <g id="line2d_7">
      <g>
       <use xlink:href="#m5be3cec52d" x="424.8" y="320.4" style="stroke: #000000; stroke-width: 0.8"/>
      </g>
     </g>
     <g id="text_7">
      <!-- 2 -->
      <g transform="translate(422.575625 329.62625) scale(0.08 -0.08)">
       <use xlink:href="#ArialMT-32"/>
      </g>
     </g>
    </g>
    <g id="xtick_8">
     <g id="line2d_8">
      <g>
       <use xlink:href="#m5be3cec52d" x="480.6" y="320.4" style="stroke: #000000; stroke-width: 0.8"/>
      </g>
     </g>
     <g id="text_8">
      <!-- 4 -->
      <g transform="translate(478.375625 329.62625) scale(0.08 -0.08)">
       <use xlink:href="#ArialMT-34"/>
      </g>
     </g>
    </g>
    <g id="xtick_9">
     <g id="line2d_9">
      <g>
       <use xlink:href="#m5be3cec52d" x="536.4" y="320.4" style="stroke: #000000; stroke-width: 0.8"/>
      </g>
     </g>
     <g id="text_9">
      <!-- 6 -->
      <g transform="translate(534.175625 329.62625) scale(0.08 -0.08)">
       <use xlink:href="#ArialMT-36"/>
      </g>
     </g>
    </g>
    <g id="xtick_10">
     <g id="line2d_10">
      <g>
       <use xlink:href="#m5be3cec52d" x="592.2" y="320.4" style="stroke: #000000; stroke-width: 0.8"/>
      </g>
     </g>
     <g id="text_10">
      <!-- 8 -->
      <g transform="translate(589.975625 329.62625) scale(0.08 -0.08)">
       <use xlink:href="#ArialMT-38"/>
      </g>
     </g>
    </g>
    <g id="text_11">
     <!-- Energy $E-E_f$ -->
     <g transform="translate(336.8 342.51625) scale(0.1 -0.1)">
      <defs>
       <path id="Arial-BoldMT-45" d="M 466 0 
L 466 4581 
L 3863 4581 
L 3863 3806 
L 1391 3806 
L 1391 2791 
L 3691 2791 
L 3691 2019 
L 1391 2019 
L 1391 772 
L 3950 772 
L 3950 0 
L 466 0 
z
" transform="scale(0.015625)"/>
       <path id="Arial-BoldMT-6e" d="M 3478 0 
L 2600 0 
L 2600 1694 
Q 2600 2231 2544 2389 
Q 2488 2547 2361 2634 
Q 2234 2722 2056 2722 
Q 1828 2722 1647 2597 
Q 1466 2472 1398 2265 
Q 1331 2059 1331 1503 
L 1331 0 
L 453 0 
L 453 3319 
L 1269 3319 
L 1269 2831 
Q 1703 3394 2363 3394 
Q 2653 3394 2893 3289 
Q 3134 3184 3257 3021 
Q 3381 2859 3429 2653 
Q 3478 2447 3478 2063 
L 3478 0 
z
" transform="scale(0.015625)"/>
       <path id="Arial-BoldMT-65" d="M 2381 1056 
L 3256 909 
Q 3088 428 2723 176 
Q 2359 -75 1813 -75 
Q 947 -75 531 491 
Q 203 944 203 1634 
Q 203 2459 634 2926 
Q 1066 3394 1725 3394 
Q 2466 3394 2894 2905 
Q 3322 2416 3303 1406 
L 1103 1406 
Q 1113 1016 1316 798 
Q 1519 581 1822 581 
Q 2028 581 2168 693 
Q 2309 806 2381 1056 
z
M 2431 1944 
Q 2422 2325 2234 2523 
Q 2047 2722 1778 2722 
Q 1491 2722 1303 2513 
Q 1116 2303 1119 1944 
L 2431 1944 
z
" transform="scale(0.015625)"/>
       <path id="Arial-BoldMT-72" d="M 1300 0 
L 422 0 
L 422 3319 
L 1238 3319 
L 1238 2847 
Q 1447 3181 1614 3287 
Q 1781 3394 1994 3394 
Q 2294 3394 2572 3228 
L 2300 2463 
Q 2078 2606 1888 2606 
Q 1703 2606 1575 2504 
Q 1447 2403 1373 2137 
Q 1300 1872 1300 1025 
L 1300 0 
z
" transform="scale(0.015625)"/>
       <path id="Arial-BoldMT-67" d="M 378 -219 
L 1381 -341 
Q 1406 -516 1497 -581 
Q 1622 -675 1891 -675 
Q 2234 -675 2406 -572 
Q 2522 -503 2581 -350 
Q 2622 -241 2622 53 
L 2622 538 
Q 2228 0 1628 0 
Q 959 0 569 566 
Q 263 1013 263 1678 
Q 263 2513 664 2953 
Q 1066 3394 1663 3394 
Q 2278 3394 2678 2853 
L 2678 3319 
L 3500 3319 
L 3500 341 
Q 3500 -247 3403 -537 
Q 3306 -828 3131 -993 
Q 2956 -1159 2664 -1253 
Q 2372 -1347 1925 -1347 
Q 1081 -1347 728 -1058 
Q 375 -769 375 -325 
Q 375 -281 378 -219 
z
M 1163 1728 
Q 1163 1200 1367 954 
Q 1572 709 1872 709 
Q 2194 709 2416 961 
Q 2638 1213 2638 1706 
Q 2638 2222 2425 2472 
Q 2213 2722 1888 2722 
Q 1572 2722 1367 2476 
Q 1163 2231 1163 1728 
z
" transform="scale(0.015625)"/>
       <path id="Arial-BoldMT-79" d="M 44 3319 
L 978 3319 
L 1772 963 
L 2547 3319 
L 3456 3319 
L 2284 125 
L 2075 -453 
Q 1959 -744 1854 -897 
Q 1750 -1050 1614 -1145 
Q 1478 -1241 1279 -1294 
Q 1081 -1347 831 -1347 
Q 578 -1347 334 -1294 
L 256 -606 
Q 463 -647 628 -647 
Q 934 -647 1081 -467 
Q 1228 -288 1306 -9 
L 44 3319 
z
" transform="scale(0.015625)"/>
       <path id="Arial-BoldMT-20" transform="scale(0.015625)"/>
       <path id="DejaVuSans-Oblique-45" d="M 1081 4666 
L 4031 4666 
L 3928 4134 
L 1606 4134 
L 1338 2753 
L 3566 2753 
L 3463 2222 
L 1234 2222 
L 909 531 
L 3284 531 
L 3181 0 
L 172 0 
L 1081 4666 
z
" transform="scale(0.015625)"/>
       <path id="DejaVuSans-2212" d="M 678 2272 
L 4684 2272 
L 4684 1741 
L 678 1741 
L 678 2272 
z
" transform="scale(0.015625)"/>
       <path id="DejaVuSans-Oblique-66" d="M 3059 4863 
L 2969 4384 
L 2419 4384 
Q 2106 4384 1964 4261 
Q 1822 4138 1753 3809 
L 1691 3500 
L 2638 3500 
L 2553 3053 
L 1606 3053 
L 1013 0 
L 434 0 
L 1031 3053 
L 481 3053 
L 563 3500 
L 1113 3500 
L 1159 3744 
Q 1278 4363 1576 4613 
Q 1875 4863 2516 4863 
L 3059 4863 
z
" transform="scale(0.015625)"/>
      </defs>
      <use xlink:href="#Arial-BoldMT-45" transform="translate(0 0.09375)"/>
      <use xlink:href="#Arial-BoldMT-6e" transform="translate(66.699219 0.09375)"/>
      <use xlink:href="#Arial-BoldMT-65" transform="translate(127.783203 0.09375)"/>
      <use xlink:href="#Arial-BoldMT-72" transform="translate(183.398438 0.09375)"/>
      <use xlink:href="#Arial-BoldMT-67" transform="translate(222.314453 0.09375)"/>
      <use xlink:href="#Arial-BoldMT-79" transform="translate(283.398438 0.09375)"/>
      <use xlink:href="#Arial-BoldMT-20" transform="translate(339.013672 0.09375)"/>
      <use xlink:href="#DejaVuSans-Oblique-45" transform="translate(366.796875 0.09375)"/>
      <use xlink:href="#DejaVuSans-2212" transform="translate(449.462891 0.09375)"/>
      <use xlink:href="#DejaVuSans-Oblique-45" transform="translate(552.734375 0.09375)"/>
      <use xlink:href="#DejaVuSans-Oblique-66" transform="translate(615.917969 -16.3125) scale(0.7)"/>
     </g>
    </g>
   </g>
   <g id="matplotlib.axis_2">
    <g id="ytick_1">
     <g id="line2d_11">
      <defs>
       <path id="mfa91bacb49" d="M 0 0 
L 3.5 0 
" style="stroke: #000000; stroke-width: 0.8"/>
      </defs>
      <g>
       <use xlink:href="#mfa91bacb49" x="90" y="290.898122" style="stroke: #000000; stroke-width: 0.8"/>
      </g>
     </g>
     <g id="text_12">
      <!-- −0.75 -->
      <g transform="translate(66.25875 293.761247) scale(0.08 -0.08)">
       <defs>
        <path id="ArialMT-2e" d="M 581 0 
L 581 641 
L 1222 641 
L 1222 0 
L 581 0 
z
" transform="scale(0.015625)"/>
        <path id="ArialMT-37" d="M 303 3981 
L 303 4522 
L 3269 4522 
L 3269 4084 
Q 2831 3619 2401 2847 
Q 1972 2075 1738 1259 
Q 1569 684 1522 0 
L 944 0 
Q 953 541 1156 1306 
Q 1359 2072 1739 2783 
Q 2119 3494 2547 3981 
L 303 3981 
z
" transform="scale(0.015625)"/>
        <path id="ArialMT-35" d="M 266 1200 
L 856 1250 
Q 922 819 1161 601 
Q 1400 384 1738 384 
Q 2144 384 2425 690 
Q 2706 997 2706 1503 
Q 2706 1984 2436 2262 
Q 2166 2541 1728 2541 
Q 1456 2541 1237 2417 
Q 1019 2294 894 2097 
L 366 2166 
L 809 4519 
L 3088 4519 
L 3088 3981 
L 1259 3981 
L 1013 2750 
Q 1425 3038 1878 3038 
Q 2478 3038 2890 2622 
Q 3303 2206 3303 1553 
Q 3303 931 2941 478 
Q 2500 -78 1738 -78 
Q 1113 -78 717 272 
Q 322 622 266 1200 
z
" transform="scale(0.015625)"/>
       </defs>
       <use xlink:href="#ArialMT-2212"/>
       <use xlink:href="#ArialMT-30" x="58.398438"/>
       <use xlink:href="#ArialMT-2e" x="114.013672"/>
       <use xlink:href="#ArialMT-37" x="141.796875"/>
       <use xlink:href="#ArialMT-35" x="197.412109"/>
      </g>
     </g>
    </g>
    <g id="ytick_2">
     <g id="line2d_12">
      <g>
       <use xlink:href="#mfa91bacb49" x="90" y="254.532081" style="stroke: #000000; stroke-width: 0.8"/>
      </g>
     </g>
     <g id="text_13">
      <!-- −0.50 -->
      <g transform="translate(66.25875 257.395206) scale(0.08 -0.08)">
       <use xlink:href="#ArialMT-2212"/>
       <use xlink:href="#ArialMT-30" x="58.398438"/>
       <use xlink:href="#ArialMT-2e" x="114.013672"/>
       <use xlink:href="#ArialMT-35" x="141.796875"/>
       <use xlink:href="#ArialMT-30" x="197.412109"/>
      </g>
     </g>
    </g>
    <g id="ytick_3">
     <g id="line2d_13">
      <g>
       <use xlink:href="#mfa91bacb49" x="90" y="218.166041" style="stroke: #000000; stroke-width: 0.8"/>
      </g>
     </g>
     <g id="text_14">
      <!-- −0.25 -->
      <g transform="translate(66.25875 221.029166) scale(0.08 -0.08)">
       <use xlink:href="#ArialMT-2212"/>
       <use xlink:href="#ArialMT-30" x="58.398438"/>
       <use xlink:href="#ArialMT-2e" x="114.013672"/>
       <use xlink:href="#ArialMT-32" x="141.796875"/>
       <use xlink:href="#ArialMT-35" x="197.412109"/>
      </g>
     </g>
    </g>
    <g id="ytick_4">
     <g id="line2d_14">
      <g>
       <use xlink:href="#mfa91bacb49" x="90" y="181.8" style="stroke: #000000; stroke-width: 0.8"/>
      </g>
     </g>
     <g id="text_15">
      <!-- 0.00 -->
      <g transform="translate(70.93125 184.663125) scale(0.08 -0.08)">
       <use xlink:href="#ArialMT-30"/>
       <use xlink:href="#ArialMT-2e" x="55.615234"/>
       <use xlink:href="#ArialMT-30" x="83.398438"/>
       <use xlink:href="#ArialMT-30" x="139.013672"/>
      </g>
     </g>
    </g>
    <g id="ytick_5">
     <g id="line2d_15">
      <g>
       <use xlink:href="#mfa91bacb49" x="90" y="145.433959" style="stroke: #000000; stroke-width: 0.8"/>
      </g>
     </g>
     <g id="text_16">
      <!-- 0.25 -->
      <g transform="translate(70.93125 148.297084) scale(0.08 -0.08)">
       <use xlink:href="#ArialMT-30"/>
       <use xlink:href="#ArialMT-2e" x="55.615234"/>
       <use xlink:href="#ArialMT-32" x="83.398438"/>
       <use xlink:href="#ArialMT-35" x="139.013672"/>
      </g>
     </g>
    </g>
    <g id="ytick_6">
     <g id="line2d_16">
      <g>
       <use xlink:href="#mfa91bacb49" x="90" y="109.067919" style="stroke: #000000; stroke-width: 0.8"/>
      </g>
     </g>
     <g id="text_17">
      <!-- 0.50 -->
      <g transform="translate(70.93125 111.931044) scale(0.08 -0.08)">
       <use xlink:href="#ArialMT-30"/>
       <use xlink:href="#ArialMT-2e" x="55.615234"/>
       <use xlink:href="#ArialMT-35" x="83.398438"/>
       <use xlink:href="#ArialMT-30" x="139.013672"/>
      </g>
     </g>
    </g>
    <g id="ytick_7">
     <g id="line2d_17">
      <g>
       <use xlink:href="#mfa91bacb49" x="90" y="72.701878" style="stroke: #000000; stroke-width: 0.8"/>
      </g>
     </g>
     <g id="text_18">
      <!-- 0.75 -->
      <g transform="translate(70.93125 75.565003) scale(0.08 -0.08)">
       <use xlink:href="#ArialMT-30"/>
       <use xlink:href="#ArialMT-2e" x="55.615234"/>
       <use xlink:href="#ArialMT-37" x="83.398438"/>
       <use xlink:href="#ArialMT-35" x="139.013672"/>
      </g>
     </g>
    </g>
    <g id="text_19">
     <!-- -COHP -->
     <g transform="translate(60.285312 197.910937) rotate(-90) scale(0.1 -0.1)">
      <defs>
       <path id="Arial-BoldMT-2d" d="M 359 1222 
L 359 2100 
L 2084 2100 
L 2084 1222 
L 359 1222 
z
" transform="scale(0.015625)"/>
       <path id="Arial-BoldMT-43" d="M 3397 1684 
L 4294 1400 
Q 4088 650 3608 286 
Q 3128 -78 2391 -78 
Q 1478 -78 890 545 
Q 303 1169 303 2250 
Q 303 3394 893 4026 
Q 1484 4659 2447 4659 
Q 3288 4659 3813 4163 
Q 4125 3869 4281 3319 
L 3366 3100 
Q 3284 3456 3026 3662 
Q 2769 3869 2400 3869 
Q 1891 3869 1573 3503 
Q 1256 3138 1256 2319 
Q 1256 1450 1568 1081 
Q 1881 713 2381 713 
Q 2750 713 3015 947 
Q 3281 1181 3397 1684 
z
" transform="scale(0.015625)"/>
       <path id="Arial-BoldMT-4f" d="M 278 2263 
Q 278 2963 488 3438 
Q 644 3788 914 4066 
Q 1184 4344 1506 4478 
Q 1934 4659 2494 4659 
Q 3506 4659 4114 4031 
Q 4722 3403 4722 2284 
Q 4722 1175 4119 548 
Q 3516 -78 2506 -78 
Q 1484 -78 881 545 
Q 278 1169 278 2263 
z
M 1231 2294 
Q 1231 1516 1590 1114 
Q 1950 713 2503 713 
Q 3056 713 3411 1111 
Q 3766 1509 3766 2306 
Q 3766 3094 3420 3481 
Q 3075 3869 2503 3869 
Q 1931 3869 1581 3476 
Q 1231 3084 1231 2294 
z
" transform="scale(0.015625)"/>
       <path id="Arial-BoldMT-48" d="M 469 0 
L 469 4581 
L 1394 4581 
L 1394 2778 
L 3206 2778 
L 3206 4581 
L 4131 4581 
L 4131 0 
L 3206 0 
L 3206 2003 
L 1394 2003 
L 1394 0 
L 469 0 
z
" transform="scale(0.015625)"/>
       <path id="Arial-BoldMT-50" d="M 466 0 
L 466 4581 
L 1950 4581 
Q 2794 4581 3050 4513 
Q 3444 4409 3709 4064 
Q 3975 3719 3975 3172 
Q 3975 2750 3822 2462 
Q 3669 2175 3433 2011 
Q 3197 1847 2953 1794 
Q 2622 1728 1994 1728 
L 1391 1728 
L 1391 0 
L 466 0 
z
M 1391 3806 
L 1391 2506 
L 1897 2506 
Q 2444 2506 2628 2578 
Q 2813 2650 2917 2803 
Q 3022 2956 3022 3159 
Q 3022 3409 2875 3571 
Q 2728 3734 2503 3775 
Q 2338 3806 1838 3806 
L 1391 3806 
z
" transform="scale(0.015625)"/>
      </defs>
      <use xlink:href="#Arial-BoldMT-2d"/>
      <use xlink:href="#Arial-BoldMT-43" x="33.300781"/>
      <use xlink:href="#Arial-BoldMT-4f" x="105.517578"/>
      <use xlink:href="#Arial-BoldMT-48" x="183.300781"/>
      <use xlink:href="#Arial-BoldMT-50" x="255.517578"/>
     </g>
    </g>
   </g>
   <g id="line2d_18">
    <path d="M 89.300826 181.8 
L 164.81943 181.869823 
L 169.015032 182.117112 
L 173.210634 182.541867 
L 174.608982 182.850251 
L 176.007609 183.436472 
L 177.405957 184.466358 
L 178.804584 186.072282 
L 180.202932 188.278974 
L 181.601559 190.987517 
L 184.398534 197.350119 
L 185.796882 201.023089 
L 187.195509 205.366649 
L 188.593857 210.799736 
L 189.992484 217.694737 
L 191.391111 226.201481 
L 195.586434 256.417297 
L 196.985061 263.881063 
L 198.383409 267.434753 
L 199.782036 266.156123 
L 201.180384 260.104814 
L 202.579011 250.342714 
L 205.375986 226.780428 
L 206.774334 216.389923 
L 208.172961 208.289024 
L 209.571309 202.633377 
L 210.969936 199.082597 
L 212.368284 197.082465 
L 213.766911 196.1064 
L 215.165538 195.774742 
L 216.563886 195.870748 
L 217.962513 196.27223 
L 222.157836 197.988707 
L 223.556463 198.135625 
L 224.954811 197.824332 
L 226.353438 197.065009 
L 229.150413 194.942687 
L 230.548761 194.154271 
L 231.947388 193.895345 
L 233.345736 194.270643 
L 234.744363 195.221978 
L 238.939965 199.29643 
L 240.338313 200.313224 
L 241.73694 200.983814 
L 243.135288 201.335837 
L 244.533915 201.44639 
L 245.932263 201.391113 
L 247.33089 201.209283 
L 248.729238 200.880534 
L 250.127865 200.323407 
L 251.526213 199.436075 
L 252.92484 198.1589 
L 254.323188 196.529701 
L 259.917417 189.288495 
L 262.714392 186.38503 
L 264.11274 185.135493 
L 265.511367 184.037239 
L 266.909715 183.11936 
L 268.308342 182.416768 
L 269.70669 181.948373 
L 271.105317 181.69672 
L 275.30064 181.434885 
L 276.699267 181.17014 
L 278.097615 180.713383 
L 279.496242 180.034065 
L 280.894869 179.094367 
L 282.293217 177.865194 
L 285.090192 174.913727 
L 286.488819 173.766014 
L 287.887167 173.349987 
L 289.285794 173.898387 
L 290.684142 175.353028 
L 293.481117 179.447844 
L 294.879744 181.116318 
L 296.278092 182.066199 
L 297.676719 182.20439 
L 299.075067 181.625443 
L 300.473694 180.550463 
L 303.270669 177.962655 
L 304.669296 176.887675 
L 306.067644 176.129807 
L 307.466271 175.699233 
L 308.864619 175.524676 
L 311.661594 175.402486 
L 313.060221 175.217747 
L 318.654171 174.007485 
L 324.248121 173.411082 
L 327.045096 172.64885 
L 329.842071 171.8968 
L 331.240698 171.707696 
L 334.037673 171.749881 
L 336.834648 171.867707 
L 338.232996 171.744062 
L 339.631623 171.435678 
L 341.029971 170.925099 
L 342.428598 170.178868 
L 343.826946 169.100979 
L 345.225573 167.495054 
L 346.623921 165.062893 
L 348.022548 161.4452 
L 349.421175 156.311769 
L 350.819523 149.50841 
L 352.21815 141.248955 
L 355.015125 123.807802 
L 356.413473 117.371013 
L 357.8121 114.202803 
L 359.210448 114.815208 
L 360.609075 118.837292 
L 362.007423 125.278445 
L 364.804398 141.219862 
L 367.601373 156.899445 
L 369 163.691166 
L 370.398627 169.387543 
L 371.796975 173.822745 
L 373.195602 177.00841 
L 374.59395 179.111822 
L 375.992577 180.388998 
L 377.390925 181.09159 
L 378.789552 181.426157 
L 380.1879 181.522163 
L 381.586527 181.458159 
L 384.383502 181.023221 
L 387.180477 180.556281 
L 388.578825 180.485004 
L 389.977452 180.563555 
L 395.571402 181.305422 
L 398.368377 181.290875 
L 405.360954 181.033404 
L 410.954904 180.938852 
L 416.548854 180.940307 
L 419.345829 180.649378 
L 424.939779 179.875509 
L 426.338406 179.871145 
L 429.135381 180.204258 
L 434.729331 181.23269 
L 437.526306 181.548347 
L 441.721908 181.753451 
L 450.112833 181.8 
L 536.819616 181.744724 
L 539.616591 181.5178 
L 541.014939 181.2516 
L 542.413566 180.816662 
L 543.811914 180.172256 
L 545.210541 179.296562 
L 548.007516 177.024412 
L 549.406143 175.865062 
L 550.804491 174.909363 
L 552.203118 174.288231 
L 553.601466 174.026395 
L 556.398441 174.007485 
L 557.797068 173.741285 
L 559.195416 173.011055 
L 560.594043 171.802248 
L 563.391018 168.785321 
L 564.789366 167.532875 
L 566.187993 166.646998 
L 568.984968 165.48183 
L 570.383595 164.705052 
L 571.781943 163.523883 
L 573.18057 161.922322 
L 575.977545 158.266808 
L 577.375893 156.828167 
L 578.77452 155.949564 
L 580.172868 155.620815 
L 582.969843 155.677546 
L 584.36847 155.41571 
L 585.766818 154.576382 
L 587.165445 153.018461 
L 588.563793 150.819043 
L 591.360768 146.025998 
L 592.759395 144.491351 
L 594.158022 144.05205 
L 595.55637 144.80119 
L 596.954997 146.625311 
L 598.353345 149.293124 
L 602.548947 159.059587 
L 603.947295 161.788495 
L 605.345922 163.903544 
L 606.74427 165.382915 
L 608.142897 166.29643 
L 609.541245 166.78228 
L 613.736847 167.503782 
L 615.135474 167.970722 
L 617.932449 169.345358 
L 620.729424 170.73745 
L 623.526399 171.770246 
L 629.120349 173.440175 
L 631.917324 174.023486 
L 634.714299 174.410421 
L 637.511274 174.531156 
L 640.308249 174.311505 
L 644.503851 173.654007 
L 648.699174 172.664851 
L 648.699174 172.664851 
" clip-path="url(#p66c7153a71)" style="fill: none; stroke: #ff0000; stroke-width: 2.5; stroke-linecap: square"/>
   </g>
   <g id="line2d_19">
    <path d="M 89.300826 181.8 
L 178.804584 181.884369 
L 180.202932 182.010923 
L 181.601559 182.274213 
L 182.999907 182.757154 
L 184.398534 183.541206 
L 185.796882 184.66128 
L 189.992484 188.892833 
L 191.391111 189.833986 
L 192.789459 190.235467 
L 194.188086 190.12055 
L 195.586434 189.641973 
L 199.782036 187.782941 
L 202.579011 186.85197 
L 203.977359 186.539222 
L 205.375986 186.446125 
L 206.774334 186.687596 
L 208.172961 187.329093 
L 209.571309 188.347342 
L 212.368284 191.039884 
L 215.165538 193.810976 
L 216.563886 195.063422 
L 217.962513 196.166041 
L 219.360861 197.056281 
L 220.759488 197.686141 
L 222.157836 198.070167 
L 224.954811 198.673843 
L 226.353438 199.344433 
L 227.751786 200.49069 
L 229.150413 202.080614 
L 231.947388 205.519386 
L 233.345736 206.66128 
L 234.744363 207.134039 
L 236.14299 207.022031 
L 238.939965 206.229252 
L 240.338313 206.085242 
L 244.533915 206.237979 
L 245.932263 205.82777 
L 247.33089 205.066993 
L 251.526213 202.166437 
L 252.92484 201.494393 
L 254.323188 201.092912 
L 255.721815 200.989632 
L 257.120163 201.226739 
L 258.51879 201.868236 
L 259.917417 202.983946 
L 261.315765 204.597144 
L 265.511367 210.86083 
L 266.909715 212.284925 
L 268.308342 212.81005 
L 269.70669 212.38384 
L 271.105317 211.256493 
L 272.503665 209.916768 
L 273.902292 208.915975 
L 275.30064 208.684687 
L 276.699267 209.369823 
L 278.097615 210.789553 
L 279.496242 212.507485 
L 280.894869 214.021767 
L 282.293217 214.971648 
L 283.691844 215.281486 
L 285.090192 215.136022 
L 289.285794 214.136683 
L 290.684142 213.477731 
L 292.082769 212.276197 
L 293.481117 210.441894 
L 294.879744 208.097011 
L 297.676719 202.909759 
L 299.075067 200.53433 
L 300.473694 198.515287 
L 301.872042 196.993732 
L 303.270669 196.119492 
L 304.669296 195.979847 
L 306.067644 196.49479 
L 307.466271 197.345755 
L 308.864619 198.045438 
L 310.263246 198.107987 
L 311.661594 197.264295 
L 313.060221 195.563819 
L 315.857196 190.903147 
L 320.052519 183.976144 
L 321.451146 181.2516 
L 322.849494 178.041206 
L 328.443723 163.79881 
L 329.842071 161.145544 
L 331.240698 159.197778 
L 332.639046 158.029701 
L 334.037673 157.652949 
L 335.436021 157.988971 
L 336.834648 158.8443 
L 339.631623 160.940439 
L 341.029971 161.640122 
L 342.428598 162.005237 
L 343.826946 162.248162 
L 345.225573 162.745649 
L 346.623921 163.85845 
L 348.022548 165.76694 
L 349.421175 168.375112 
L 352.21815 174.305686 
L 353.616498 176.851309 
L 355.015125 178.801984 
L 356.413473 180.132981 
L 357.8121 180.94758 
L 359.210448 181.397064 
L 360.609075 181.622534 
L 363.40605 181.770907 
L 374.59395 181.8 
L 398.368377 181.719995 
L 410.954904 181.370881 
L 415.150506 181.661809 
L 419.345829 181.955647 
L 423.541431 181.936736 
L 436.127958 181.615261 
L 444.518883 181.725813 
L 448.714206 181.939646 
L 450.112833 182.120021 
L 451.511181 182.412404 
L 452.909808 182.853161 
L 454.308156 183.469929 
L 455.706783 184.268527 
L 458.503758 186.274478 
L 459.902385 187.308728 
L 461.300733 188.197514 
L 462.69936 188.817191 
L 464.097708 189.0863 
L 465.496335 188.972838 
L 466.894683 188.494261 
L 468.29331 187.697117 
L 469.691658 186.625046 
L 471.090285 185.25041 
L 472.488633 183.372468 
L 473.88726 180.492277 
L 475.285608 175.722507 
L 476.684235 167.848532 
L 478.082583 155.705184 
L 479.48121 138.83425 
L 483.676812 78.331341 
L 485.07516 67.342978 
L 486.473787 66.3 
L 487.872135 75.170405 
L 489.270762 91.415842 
L 492.067737 130.611161 
L 493.466085 147.23917 
L 494.864712 159.948373 
L 496.26306 168.81296 
L 497.661687 174.529701 
L 499.060035 177.965565 
L 500.458662 179.897329 
L 501.85701 180.912669 
L 503.255637 181.413065 
L 504.654264 181.641444 
L 507.451239 181.77818 
L 520.037487 181.8 
L 542.413566 181.69672 
L 545.210541 181.341788 
L 546.608889 180.956308 
L 548.007516 180.367178 
L 549.406143 179.542396 
L 550.804491 178.495054 
L 555.000093 174.996641 
L 556.398441 174.234409 
L 557.797068 173.857657 
L 559.195416 173.811108 
L 560.594043 173.898387 
L 561.992391 173.84311 
L 563.391018 173.389262 
L 564.789366 172.439381 
L 568.984968 168.42457 
L 570.383595 167.602698 
L 571.781943 167.173578 
L 573.18057 166.903015 
L 574.578918 166.436075 
L 575.977545 165.465829 
L 577.375893 163.883179 
L 580.172868 159.751997 
L 581.571495 158.002063 
L 582.969843 156.892171 
L 584.36847 156.460143 
L 585.766818 156.506691 
L 587.165445 156.708887 
L 588.563793 156.740889 
L 589.96242 156.348135 
L 591.360768 155.360434 
L 592.759395 153.721053 
L 594.158022 151.537636 
L 595.55637 149.140386 
L 596.954997 147.019519 
L 598.353345 145.703068 
L 599.751972 145.592515 
L 601.15032 146.847871 
L 602.548947 149.333853 
L 606.74427 159.295239 
L 608.142897 161.720127 
L 609.541245 163.336234 
L 610.939872 164.281751 
L 612.33822 164.79233 
L 616.533822 165.669479 
L 617.932449 166.124782 
L 620.729424 167.425231 
L 623.526399 168.888601 
L 626.323374 170.079952 
L 634.714299 172.846681 
L 637.511274 173.590003 
L 640.308249 173.98712 
L 643.105224 174.042396 
L 647.300826 173.898387 
L 648.699174 173.72092 
L 648.699174 173.72092 
" clip-path="url(#p66c7153a71)" style="fill: none; stroke: #0000ff; stroke-width: 2.5; stroke-linecap: square"/>
   </g>
   <g id="line2d_20">
    <path d="M 369 320.4 
L 369 43.2 
" clip-path="url(#p66c7153a71)" style="fill: none; stroke-dasharray: 5.55,2.4; stroke-dashoffset: 0; stroke: #000000; stroke-width: 1.5"/>
   </g>
   <g id="line2d_21">
    <path d="M 90 181.8 
L 648 181.8 
" clip-path="url(#p66c7153a71)" style="fill: none; stroke-dasharray: 5.55,2.4; stroke-dashoffset: 0; stroke: #000000; stroke-width: 1.5"/>
   </g>
   <g id="patch_3">
    <path d="M 90 320.4 
L 90 43.2 
" style="fill: none; stroke: #000000; stroke-width: 0.8; stroke-linejoin: miter; stroke-linecap: square"/>
   </g>
   <g id="patch_4">
    <path d="M 648 320.4 
L 648 43.2 
" style="fill: none; stroke: #000000; stroke-width: 0.8; stroke-linejoin: miter; stroke-linecap: square"/>
   </g>
   <g id="patch_5">
    <path d="M 90 320.4 
L 648 320.4 
" style="fill: none; stroke: #000000; stroke-width: 0.8; stroke-linejoin: miter; stroke-linecap: square"/>
   </g>
   <g id="patch_6">
    <path d="M 90 43.2 
L 648 43.2 
" style="fill: none; stroke: #000000; stroke-width: 0.8; stroke-linejoin: miter; stroke-linecap: square"/>
   </g>
   <g id="legend_1">
    <g id="patch_7">
     <path d="M 595.0125 72.2325 
L 642.4 72.2325 
Q 644 72.2325 644 70.6325 
L 644 48.8 
Q 644 47.2 642.4 47.2 
L 595.0125 47.2 
Q 593.4125 47.2 593.4125 48.8 
L 593.4125 70.6325 
Q 593.4125 72.2325 595.0125 72.2325 
z
" style="fill: #ffffff; opacity: 0.8; stroke: #cccccc; stroke-linejoin: miter"/>
    </g>
    <g id="line2d_22">
     <path d="M 596.6125 53.32625 
L 604.6125 53.32625 
L 612.6125 53.32625 
" style="fill: none; stroke: #ff0000; stroke-width: 2.5; stroke-linecap: square"/>
    </g>
    <g id="text_20">
     <!-- -up -->
     <g transform="translate(619.0125 56.12625) scale(0.08 -0.08)">
      <defs>
       <path id="ArialMT-2d" d="M 203 1375 
L 203 1941 
L 1931 1941 
L 1931 1375 
L 203 1375 
z
" transform="scale(0.015625)"/>
       <path id="ArialMT-75" d="M 2597 0 
L 2597 488 
Q 2209 -75 1544 -75 
Q 1250 -75 995 37 
Q 741 150 617 320 
Q 494 491 444 738 
Q 409 903 409 1263 
L 409 3319 
L 972 3319 
L 972 1478 
Q 972 1038 1006 884 
Q 1059 663 1231 536 
Q 1403 409 1656 409 
Q 1909 409 2131 539 
Q 2353 669 2445 892 
Q 2538 1116 2538 1541 
L 2538 3319 
L 3100 3319 
L 3100 0 
L 2597 0 
z
" transform="scale(0.015625)"/>
       <path id="ArialMT-70" d="M 422 -1272 
L 422 3319 
L 934 3319 
L 934 2888 
Q 1116 3141 1344 3267 
Q 1572 3394 1897 3394 
Q 2322 3394 2647 3175 
Q 2972 2956 3137 2557 
Q 3303 2159 3303 1684 
Q 3303 1175 3120 767 
Q 2938 359 2589 142 
Q 2241 -75 1856 -75 
Q 1575 -75 1351 44 
Q 1128 163 984 344 
L 984 -1272 
L 422 -1272 
z
M 931 1641 
Q 931 1000 1190 694 
Q 1450 388 1819 388 
Q 2194 388 2461 705 
Q 2728 1022 2728 1688 
Q 2728 2322 2467 2637 
Q 2206 2953 1844 2953 
Q 1484 2953 1207 2617 
Q 931 2281 931 1641 
z
" transform="scale(0.015625)"/>
      </defs>
      <use xlink:href="#ArialMT-2d"/>
      <use xlink:href="#ArialMT-75" x="33.300781"/>
      <use xlink:href="#ArialMT-70" x="88.916016"/>
     </g>
    </g>
    <g id="line2d_23">
     <path d="M 596.6125 64.6425 
L 604.6125 64.6425 
L 612.6125 64.6425 
" style="fill: none; stroke: #0000ff; stroke-width: 2.5; stroke-linecap: square"/>
    </g>
    <g id="text_21">
     <!-- -down -->
     <g transform="translate(619.0125 67.4425) scale(0.08 -0.08)">
      <defs>
       <path id="ArialMT-64" d="M 2575 0 
L 2575 419 
Q 2259 -75 1647 -75 
Q 1250 -75 917 144 
Q 584 363 401 755 
Q 219 1147 219 1656 
Q 219 2153 384 2558 
Q 550 2963 881 3178 
Q 1213 3394 1622 3394 
Q 1922 3394 2156 3267 
Q 2391 3141 2538 2938 
L 2538 4581 
L 3097 4581 
L 3097 0 
L 2575 0 
z
M 797 1656 
Q 797 1019 1065 703 
Q 1334 388 1700 388 
Q 2069 388 2326 689 
Q 2584 991 2584 1609 
Q 2584 2291 2321 2609 
Q 2059 2928 1675 2928 
Q 1300 2928 1048 2622 
Q 797 2316 797 1656 
z
" transform="scale(0.015625)"/>
       <path id="ArialMT-6f" d="M 213 1659 
Q 213 2581 725 3025 
Q 1153 3394 1769 3394 
Q 2453 3394 2887 2945 
Q 3322 2497 3322 1706 
Q 3322 1066 3130 698 
Q 2938 331 2570 128 
Q 2203 -75 1769 -75 
Q 1072 -75 642 372 
Q 213 819 213 1659 
z
M 791 1659 
Q 791 1022 1069 705 
Q 1347 388 1769 388 
Q 2188 388 2466 706 
Q 2744 1025 2744 1678 
Q 2744 2294 2464 2611 
Q 2184 2928 1769 2928 
Q 1347 2928 1069 2612 
Q 791 2297 791 1659 
z
" transform="scale(0.015625)"/>
       <path id="ArialMT-77" d="M 1034 0 
L 19 3319 
L 600 3319 
L 1128 1403 
L 1325 691 
Q 1338 744 1497 1375 
L 2025 3319 
L 2603 3319 
L 3100 1394 
L 3266 759 
L 3456 1400 
L 4025 3319 
L 4572 3319 
L 3534 0 
L 2950 0 
L 2422 1988 
L 2294 2553 
L 1622 0 
L 1034 0 
z
" transform="scale(0.015625)"/>
       <path id="ArialMT-6e" d="M 422 0 
L 422 3319 
L 928 3319 
L 928 2847 
Q 1294 3394 1984 3394 
Q 2284 3394 2536 3286 
Q 2788 3178 2913 3003 
Q 3038 2828 3088 2588 
Q 3119 2431 3119 2041 
L 3119 0 
L 2556 0 
L 2556 2019 
Q 2556 2363 2490 2533 
Q 2425 2703 2258 2804 
Q 2091 2906 1866 2906 
Q 1506 2906 1245 2678 
Q 984 2450 984 1813 
L 984 0 
L 422 0 
z
" transform="scale(0.015625)"/>
      </defs>
      <use xlink:href="#ArialMT-2d"/>
      <use xlink:href="#ArialMT-64" x="33.300781"/>
      <use xlink:href="#ArialMT-6f" x="88.916016"/>
      <use xlink:href="#ArialMT-77" x="144.53125"/>
      <use xlink:href="#ArialMT-6e" x="216.748047"/>
     </g>
    </g>
   </g>
  </g>
 </g>
 <defs>
  <clipPath id="p66c7153a71">
   <rect x="90" y="43.2" width="558" height="277.2"/>
  </clipPath>
 </defs>
</svg>
